<svg width="182" height="182" viewBox="0 0 182 182" fill="none" xmlns="http://www.w3.org/2000/svg">
<g clip-path="url(#clip0_19_12)">
<path d="M91 0C40.7452 0 0 40.7452 0 91C0 141.26 40.7395 182 91 182C141.26 182 182 141.26 182 91C182 40.7452 141.26 0 91 0ZM91 170.801C47.0925 170.801 11.3752 134.907 11.3752 91C11.3752 47.0925 47.0925 11.3752 91 11.3752C134.907 11.3752 170.625 47.0925 170.625 91C170.625 134.907 134.907 170.801 91 170.801Z" fill="white"/>
<path d="M111.515 47.2178C109.291 44.9769 105.691 44.9769 103.473 47.2178L64.2288 87.0245C62.0673 89.2087 62.0617 92.9624 64.2288 95.1518L103.467 134.959C105.691 137.199 109.291 137.199 111.509 134.959C113.733 132.712 113.733 129.078 111.509 126.831L76.2749 91.0856L111.515 55.3399C113.733 53.0985 113.733 49.4644 111.515 47.2178Z" fill="white"/>
</g>
<defs>
<clipPath id="clip0_19_12">
<rect width="182" height="182" fill="white"/>
</clipPath>
</defs>
</svg>
