<svg version="1.1" xmlns="http://www.w3.org/2000/svg" xmlns:xlink="http://www.w3.org/1999/xlink">

    <symbol viewBox="0 0 25 25" fill="none" id="zone">
        <path d="M3.2072 7.55041L0 9.41219L0 17.5233L0 25L24.9864 25L25 2.04248L22.0404 0L20.1906 0.737314L19.2385 4.55374L18.4985 5.2069L17.8042 4.63319L17.524 7.55084L16.4637 8.35778L15.536 5.91516L13.2782 2.79802L11.2597 4.17953L9.64527 9.86915L9.22363 9.68845L8.91693 8.5718L8.35329 7.67344L7.84988 8.51755L7.81147 9.42659L7.59905 9.5744L6.95597 8.58974L6.48952 9.06904L6.57478 10.5834L6.19766 10.3322L5.76991 8.1113L4.81431 9.38857L3.2072 7.55041Z" fill="currentColor"/>
    </symbol>

    <symbol viewBox="0 0 27 27" fill="none" id="linear">
        <path d="M2 26L4.50918 11.6982L7.66978 8.15141L11.1726 15.9951L12.664 22.1671L14.3046 20.2221L14.7389 12.7852L15.8487 14.2726L17.0068 12.6136L18.4786 2.94557L21.3987 1L26 6.17251" stroke="currentColor"/>
        <path d="M1 1V24.6486C1 25.007 1.14237 25.3508 1.3958 25.6042C1.64923 25.8576 1.99295 26 2.35135 26H26" stroke="currentColor" stroke-linecap="round" stroke-linejoin="round"/>
    </symbol>

    <symbol viewBox="0 0 25 25" fill="none" id="candlestick">
        <rect width="5.90923" height="5.12048" transform="matrix(1 0 0 -1 9.54395 15.3613)" fill="currentColor"/>
        <rect width="5.90923" height="12.3494" transform="matrix(1 0 0 -1 0 22.5908)" fill="currentColor"/>
        <rect width="5.90923" height="12.9518" transform="matrix(1 0 0 -1 19.0918 15.3613)" fill="currentColor"/>
        <line x1="3.22754" y1="7.83105" x2="3.22754" y2="24.9997" stroke="currentColor"/>
        <line x1="22.3193" x2="22.3193" y2="17.7711" stroke="currentColor"/>
        <line x1="12.5" y1="17.9395" x2="12.5" y2="7.99969" stroke="currentColor"/>
    </symbol>


    <symbol width="25" height="25" viewBox="0 0 25 25" fill="none" id="lineSegment">
        <circle cx="2.5" cy="22.5" r="2.5" fill="currentColor"/>
        <circle cx="22.5" cy="2.5" r="2.5" fill="currentColor"/>
        <line x1="2.90817" y1="22.4726" x2="22" y2="3.38074" stroke="currentColor"/>
    </symbol>

    <symbol viewBox="0 0 26 26" fill="none" id="ray">
        <circle cx="3" cy="23" r="3" fill="currentColor"/>
        <path d="M25.5006 0.999993C25.5006 0.723277 25.2772 0.498954 25.0017 0.498953L20.511 0.498953C20.2355 0.498953 20.0121 0.723276 20.0121 0.999993C20.0121 1.27671 20.2355 1.50103 20.511 1.50103L24.5027 1.50103L24.5027 5.50935C24.5027 5.78607 24.7261 6.01039 25.0017 6.01039C25.2772 6.01039 25.5006 5.78607 25.5006 5.50935L25.5006 0.999993ZM3.7493 23.0496L25.3545 1.35428L24.6488 0.645705L3.04367 22.341L3.7493 23.0496Z" fill="currentColor"/>
    </symbol>

    <symbol viewBox="0 0 25 25" fill="none" id="frame">
        <line y1="3.5" x2="25" y2="3.5" stroke="currentColor"/>
        <line y1="20.5" x2="25" y2="20.5" stroke="currentColor"/>
        <line x1="4.5" y1="25" x2="4.5" stroke="currentColor"/>
        <line x1="20.5" y1="25" x2="20.5" stroke="currentColor"/>
    </symbol>

    <symbol viewBox="0 0 25 25" fill="none" id="ellipse">
        <circle cx="12.5" cy="12.5" r="12" stroke="currentColor"/>
        <circle cx="13" cy="13" r="2" fill="currentColor"/>
    </symbol>

    <symbol viewBox="0 0 26 9" fill="none" id="horizontalLine">
        <circle cx="13.1543" cy="4.5" r="4" stroke="currentColor"/>
        <line x1="0.654297" y1="4.5" x2="9.6543" y2="4.5" stroke="currentColor"/>
        <line x1="16.6543" y1="4.5" x2="25.6543" y2="4.5" stroke="currentColor"/>
    </symbol>

    <symbol viewBox="0 0 10 25" fill="none" id="verticalLine">
        <circle cx="5.1543" cy="12.5" r="4" stroke="currentColor"/>
        <line x1="5.1543" y1="9" x2="5.1543" stroke="currentColor"/>
        <line x1="5.1543" y1="25" x2="5.1543" y2="16" stroke="currentColor"/>
    </symbol>

    <symbol viewBox="0 0 26 25" fill="none" id="intersection">
        <circle cx="13.1543" cy="12.5" r="4" stroke="currentColor"/>
        <line x1="0.654297" y1="12.5" x2="9.6543" y2="12.5" stroke="currentColor"/>
        <line x1="13.1543" y1="9" x2="13.1543" stroke="currentColor"/>
        <line x1="13.1543" y1="25" x2="13.1543" y2="16" stroke="currentColor"/>
        <line x1="16.6543" y1="12.5" x2="25.6543" y2="12.5" stroke="currentColor"/>
    </symbol>

    <symbol width="26" height="9" viewBox="0 0 26 9" fill="none" id="fibLines">
        <line x1="0.654297" y1="1.5" x2="25.6543" y2="1.5" stroke="currentColor" stroke-width="3"/>
        <line x1="0.654297" y1="8.5" x2="25.6543" y2="8.5" stroke="currentColor"/>
        <line x1="0.654297" y1="6.5" x2="25.6543" y2="6.5" stroke="currentColor"/>
    </symbol>

    <symbol viewBox="0 0 26 17" fill="none" id="endrus">
        <line x1="4.1543" y1="12" x2="4.1543" stroke="currentColor"/>
        <line x1="22.1543" y1="12" x2="22.1543" stroke="currentColor"/>
        <line x1="13.5" y1="17" x2="13.5" y2="6" stroke="currentColor"/>
        <line x1="0.654297" y1="13" x2="25.6543" y2="13" stroke="currentColor" stroke-width="2"/>
    </symbol>

    <symbol viewBox="0 0 26 22" fill="none" id="canal">
        <path d="M16.8781 0.776049C16.4008 0.308427 15.7678 0.0331281 15.1002 0.00280119C14.4326 -0.0275257 13.7772 0.189248 13.2595 0.611666C12.7417 1.03408 12.3978 1.6325 12.2936 2.29247C12.1895 2.95244 12.3323 3.62764 12.6948 4.18895L4.86238 12.0196C4.34121 11.6739 3.71639 11.5193 3.09409 11.582C2.4718 11.6447 1.89041 11.9209 1.44873 12.3636C0.940028 12.8728 0.654297 13.5631 0.654297 14.2828C0.654297 15.0025 0.940028 15.6928 1.44873 16.202C1.70032 16.4549 1.99943 16.6556 2.32887 16.7925C2.6583 16.9295 3.01156 17 3.36834 17C3.72512 17 4.07838 16.9295 4.40782 16.7925C4.73725 16.6556 5.03636 16.4549 5.28795 16.202C5.73078 15.7604 6.00703 15.1791 6.06976 14.557C6.13248 13.9348 5.97781 13.3101 5.63204 12.7891L13.4644 4.95843C14.0259 5.32084 14.7012 5.46362 15.3613 5.35947C16.0214 5.25531 16.62 4.91153 17.0425 4.39387C17.465 3.87621 17.6818 3.22101 17.6515 2.55356C17.6212 1.88611 17.3458 1.25327 16.8781 0.776049ZM4.5183 15.4325C4.20713 15.7049 3.80402 15.8488 3.39066 15.8351C2.9773 15.8214 2.5846 15.6511 2.29215 15.3587C1.9997 15.0664 1.82937 14.6737 1.81567 14.2605C1.80197 13.8472 1.94594 13.4442 2.21838 13.1331C2.36537 12.9653 2.54525 12.8294 2.7469 12.7339C2.94854 12.6384 3.16765 12.5853 3.39066 12.5779C3.61366 12.5705 3.83581 12.609 4.04333 12.6909C4.25086 12.7729 4.43935 12.8965 4.59712 13.0543C4.7549 13.212 4.8786 13.4005 4.96056 13.608C5.04252 13.8154 5.08099 14.0375 5.0736 14.2605C5.06622 14.4834 5.01312 14.7025 4.9176 14.9041C4.82208 15.1057 4.68617 15.2855 4.5183 15.4325ZM16.1084 3.84494C15.803 4.14899 15.3895 4.31969 14.9585 4.31969C14.5274 4.31969 14.114 4.14899 13.8085 3.84494C13.5799 3.61734 13.4239 3.327 13.3604 3.01071C13.297 2.69443 13.3288 2.36642 13.452 2.06826C13.5751 1.77009 13.784 1.51517 14.0522 1.3358C14.3204 1.15644 14.6358 1.06069 14.9585 1.06069C15.2811 1.06069 15.5965 1.15644 15.8647 1.3358C16.1329 1.51517 16.3418 1.77009 16.4649 2.06826C16.5881 2.36642 16.6199 2.69443 16.5565 3.01071C16.493 3.327 16.3371 3.61734 16.1084 3.84494Z" fill="currentColor"/>
        <path d="M24.8781 6.7304C24.4008 6.29028 23.7678 6.03118 23.1002 6.00264C22.4326 5.97409 21.7772 6.17812 21.2595 6.57569C20.7417 6.97326 20.3978 7.53647 20.2936 8.15762C20.1895 8.77876 20.3323 9.41425 20.6948 9.94254L12.8624 17.3126C12.3412 16.9872 11.7164 16.8417 11.0941 16.9007C10.4718 16.9597 9.89041 17.2196 9.44873 17.6363C8.94003 18.1156 8.6543 18.7653 8.6543 19.4426C8.6543 20.12 8.94003 20.7697 9.44873 21.2489C9.70032 21.487 9.99943 21.6759 10.3289 21.8047C10.6583 21.9336 11.0116 22 11.3683 22C11.7251 22 12.0784 21.9336 12.4078 21.8047C12.7373 21.6759 13.0364 21.487 13.288 21.2489C13.7308 20.8333 14.007 20.2862 14.0698 19.7007C14.1325 19.1151 13.9778 18.5272 13.632 18.0368L21.4644 10.6668C22.0259 11.0078 22.7012 11.1422 23.3613 11.0442C24.0214 10.9462 24.62 10.6226 25.0425 10.1354C25.465 9.6482 25.6818 9.03154 25.6515 8.40335C25.6212 7.77517 25.3458 7.17954 24.8781 6.7304ZM12.5183 20.5247C12.2071 20.7811 11.804 20.9165 11.3907 20.9036C10.9773 20.8908 10.5846 20.7305 10.2922 20.4553C9.9997 20.1801 9.82937 19.8106 9.81567 19.4216C9.80197 19.0327 9.94594 18.6534 10.2184 18.3606C10.3654 18.2026 10.5453 18.0747 10.7469 17.9848C10.9485 17.8949 11.1677 17.845 11.3907 17.838C11.6137 17.8311 11.8358 17.8673 12.0433 17.9444C12.2509 18.0215 12.4393 18.1379 12.5971 18.2864C12.7549 18.4348 12.8786 18.6122 12.9606 18.8075C13.0425 19.0028 13.081 19.2118 13.0736 19.4216C13.0662 19.6315 13.0131 19.8376 12.9176 20.0274C12.8221 20.2171 12.6862 20.3864 12.5183 20.5247ZM24.1084 9.61877C23.803 9.90493 23.3895 10.0656 22.9585 10.0656C22.5274 10.0656 22.114 9.90493 21.8085 9.61877C21.5799 9.40455 21.4239 9.13129 21.3604 8.83361C21.297 8.53593 21.3288 8.22722 21.452 7.94659C21.5751 7.66596 21.784 7.42604 22.0522 7.25723C22.3204 7.08841 22.6358 6.99829 22.9585 6.99829C23.2811 6.99829 23.5965 7.08841 23.8647 7.25723C24.1329 7.42604 24.3418 7.66596 24.4649 7.94659C24.5881 8.22722 24.6199 8.53593 24.5565 8.83361C24.493 9.13129 24.3371 9.40455 24.1084 9.61877Z" fill="currentColor"/>
    </symbol>

    <svg viewBox="0 0 20 23" fill="none" id="curves">
        <path d="M0.654297 22L9.27821 21.129C12.5801 20.7955 14.1998 16.9363 12.1249 14.3462L9.70141 11.321C8.01103 9.21091 9.93845 6.15397 12.5711 6.76959L16.7479 7.74628C18.7865 8.223 20.0278 5.57603 18.3575 4.31356L17.5797 3.72559C15.963 2.50362 17.3154 -0.0390063 19.2323 0.618421V0.618421" stroke="currentColor"/>
    </svg>

    <symbol viewBox="0 0 10 5" fill="none" id="pairBlockArrow">
        <path d="M5 5L0 0L10 0L5 5Z" fill="#50A18E"/>
    </symbol>

    <symbol width="25" height="25" viewBox="0 0 25 25" fill="none" xmlns="http://www.w3.org/2000/svg" id="chart-candles">
        <rect width="5.90923" height="5.12048" transform="matrix(1 0 0 -1 9.54395 15.3613)" fill="#0E7465"/>
        <rect width="5.90923" height="12.3494" transform="matrix(1 0 0 -1 0 22.5908)" fill="#0E7465"/>
        <rect width="5.90923" height="12.9518" transform="matrix(1 0 0 -1 19.0918 15.3613)" fill="#0E7465"/>
        <line x1="3.22754" y1="7.83105" x2="3.22754" y2="24.9997" stroke="#0E7465"/>
        <line x1="22.3193" x2="22.3193" y2="17.7711" stroke="#0E7465"/>
        <line x1="12.5" y1="17.9395" x2="12.5" y2="7.99969" stroke="#0E7465"/>
    </symbol>


    <symbol viewBox="0 0 25 25" fill="none" id="tools">
        <path d="M23.8585 1.14125C23.1566 0.45357 22.2257 0.0487178 21.2439 0.0041194C20.2622 -0.040479 19.2984 0.278306 18.537 0.899509C17.7756 1.52071 17.2699 2.40073 17.1167 3.37127C16.9635 4.34182 17.1735 5.33476 17.7066 6.16021L6.18836 17.6759C5.42192 17.1675 4.50307 16.9401 3.58793 17.0323C2.6728 17.1245 1.81782 17.5307 1.16828 18.1818C0.420193 18.9306 0 19.9457 0 21.0041C0 22.0625 0.420193 23.0776 1.16828 23.8264C1.53827 24.1984 1.97814 24.4935 2.4626 24.6949C2.94706 24.8963 3.46657 25 3.99124 25C4.51592 25 5.03542 24.8963 5.51988 24.6949C6.00434 24.4935 6.44421 24.1984 6.8142 23.8264C7.46542 23.177 7.87167 22.3223 7.96391 21.4073C8.05615 20.4924 7.8287 19.5737 7.32021 18.8075L18.8384 7.29181C19.6641 7.82476 20.6572 8.03474 21.628 7.88157C22.5987 7.7284 23.479 7.22284 24.1003 6.46158C24.7216 5.70031 25.0405 4.73678 24.9959 3.75524C24.9513 2.7737 24.5463 1.84304 23.8585 1.14125ZM5.68235 22.6948C5.22475 23.0954 4.63194 23.3071 4.02406 23.2869C3.41618 23.2668 2.83869 23.0164 2.40861 22.5864C1.97854 22.1564 1.72805 21.579 1.7079 20.9713C1.68776 20.3635 1.89947 19.7709 2.30013 19.3134C2.51628 19.0666 2.78082 18.8667 3.07735 18.7263C3.37389 18.5859 3.69611 18.5078 4.02406 18.4969C4.35201 18.4861 4.67869 18.5426 4.98388 18.6631C5.28907 18.7836 5.56625 18.9655 5.79827 19.1975C6.03029 19.4294 6.2122 19.7066 6.33274 20.0117C6.45327 20.3168 6.50985 20.6434 6.49898 20.9713C6.48811 21.2992 6.41003 21.6213 6.26956 21.9178C6.12909 22.2143 5.92923 22.4787 5.68235 22.6948ZM22.7266 5.65432C22.2775 6.10145 21.6694 6.35248 21.0355 6.35248C20.4017 6.35248 19.7936 6.10145 19.3444 5.65432C19.0082 5.31961 18.7788 4.89265 18.6855 4.42752C18.5922 3.96239 18.639 3.48003 18.8201 3.04155C19.0012 2.60307 19.3084 2.22819 19.7028 1.96442C20.0972 1.70064 20.561 1.55984 21.0355 1.55984C21.51 1.55984 21.9739 1.70064 22.3682 1.96442C22.7626 2.22819 23.0698 2.60307 23.2509 3.04155C23.432 3.48003 23.4789 3.96239 23.3856 4.42752C23.2922 4.89265 23.0629 5.31961 22.7266 5.65432Z" fill="#0E7465"/>
    </symbol>

    <symbol viewBox="0 0 27 27" fill="none" id="size-down">
        <path d="M18.5 13.5H8.5" stroke="#0E7465" stroke-width="2" stroke-linecap="round"/>
        <path d="M13.5 26C20.4036 26 26 20.4036 26 13.5C26 6.59644 20.4036 1 13.5 1C6.59644 1 1 6.59644 1 13.5C1 20.4036 6.59644 26 13.5 26Z" stroke="#0E7465" stroke-width="2"/>
    </symbol>

    <symbol viewBox="0 0 25 25" fill="none" id="size-up">
        <path d="M17.6336 11.6069H13.3926V7.36579C13.3926 7.24302 13.2921 7.14258 13.1694 7.14258H11.8301C11.7073 7.14258 11.6069 7.24302 11.6069 7.36579V11.6069H7.36579C7.24302 11.6069 7.14258 11.7073 7.14258 11.8301V13.1694C7.14258 13.2921 7.24302 13.3926 7.36579 13.3926H11.6069V17.6336C11.6069 17.7564 11.7073 17.8569 11.8301 17.8569H13.1694C13.2921 17.8569 13.3926 17.7564 13.3926 17.6336V13.3926H17.6336C17.7564 13.3926 17.8569 13.2921 17.8569 13.1694V11.8301C17.8569 11.7073 17.7564 11.6069 17.6336 11.6069Z" fill="currentColor"/>
        <path d="M12.5 0C5.5971 0 0 5.5971 0 12.5C0 19.4029 5.5971 25 12.5 25C19.4029 25 25 19.4029 25 12.5C25 5.5971 19.4029 0 12.5 0ZM12.5 22.8795C6.76897 22.8795 2.12054 18.231 2.12054 12.5C2.12054 6.76897 6.76897 2.12054 12.5 2.12054C18.231 2.12054 22.8795 6.76897 22.8795 12.5C22.8795 18.231 18.231 22.8795 12.5 22.8795Z" fill="currentColor"/>
    </symbol>

    <symbol viewBox="0 0 25 25" fill="none" id="normal-size">
        <path d="M1.38889 24.9998C0.99537 24.9998 0.665741 24.8665 0.4 24.5998C0.133333 24.3341 0 24.0045 0 23.611V19.4443C0 19.0508 0.133333 18.7211 0.4 18.4554C0.665741 18.1887 0.99537 18.0554 1.38889 18.0554C1.78241 18.0554 2.1125 18.1887 2.37917 18.4554C2.64491 18.7211 2.77778 19.0508 2.77778 19.4443V22.2221H5.55556C5.94907 22.2221 6.27917 22.3554 6.54583 22.6221C6.81157 22.8878 6.94444 23.2174 6.94444 23.611C6.94444 24.0045 6.81157 24.3341 6.54583 24.5998C6.27917 24.8665 5.94907 24.9998 5.55556 24.9998H1.38889ZM19.4444 24.9998C19.0509 24.9998 18.7213 24.8665 18.4556 24.5998C18.1889 24.3341 18.0556 24.0045 18.0556 23.611C18.0556 23.2174 18.1889 22.8878 18.4556 22.6221C18.7213 22.3554 19.0509 22.2221 19.4444 22.2221H22.2222V19.4443C22.2222 19.0508 22.3556 18.7211 22.6222 18.4554C22.888 18.1887 23.2176 18.0554 23.6111 18.0554C24.0046 18.0554 24.3343 18.1887 24.6 18.4554C24.8667 18.7211 25 19.0508 25 19.4443V23.611C25 24.0045 24.8667 24.3341 24.6 24.5998C24.3343 24.8665 24.0046 24.9998 23.6111 24.9998H19.4444ZM12.5 22.2221C9.81481 22.2221 7.52315 21.273 5.625 19.3748C3.72685 17.4767 2.77778 15.185 2.77778 12.4998C2.77778 9.81466 3.72685 7.523 5.625 5.62485C7.52315 3.7267 9.81481 2.77763 12.5 2.77763C15.1852 2.77763 17.4769 3.7267 19.375 5.62485C21.2731 7.523 22.2222 9.81466 22.2222 12.4998C22.2222 15.185 21.2731 17.4767 19.375 19.3748C17.4769 21.273 15.1852 22.2221 12.5 22.2221ZM12.5 19.4443C14.4213 19.4443 16.0593 18.767 17.4139 17.4123C18.7676 16.0586 19.4444 14.4211 19.4444 12.4998C19.4444 10.5786 18.7676 8.94059 17.4139 7.58596C16.0593 6.23225 14.4213 5.5554 12.5 5.5554C10.5787 5.5554 8.9412 6.23225 7.5875 7.58596C6.23287 8.94059 5.55556 10.5786 5.55556 12.4998C5.55556 14.4211 6.23287 16.0586 7.5875 17.4123C8.9412 18.767 10.5787 19.4443 12.5 19.4443ZM1.38889 6.94429C0.99537 6.94429 0.665741 6.81142 0.4 6.54568C0.133333 6.27901 0 5.94892 0 5.5554V1.38874C0 0.995218 0.133333 0.665126 0.4 0.398459C0.665741 0.132718 0.99537 -0.000151992 1.38889 -0.000151992H5.55556C5.94907 -0.000151992 6.27917 0.132718 6.54583 0.398459C6.81157 0.665126 6.94444 0.995218 6.94444 1.38874C6.94444 1.78226 6.81157 2.11188 6.54583 2.37763C6.27917 2.64429 5.94907 2.77763 5.55556 2.77763H2.77778V5.5554C2.77778 5.94892 2.64491 6.27901 2.37917 6.54568C2.1125 6.81142 1.78241 6.94429 1.38889 6.94429ZM23.6111 6.94429C23.2176 6.94429 22.888 6.81142 22.6222 6.54568C22.3556 6.27901 22.2222 5.94892 22.2222 5.5554V2.77763H19.4444C19.0509 2.77763 18.7213 2.64429 18.4556 2.37763C18.1889 2.11188 18.0556 1.78226 18.0556 1.38874C18.0556 0.995218 18.1889 0.665126 18.4556 0.398459C18.7213 0.132718 19.0509 -0.000151992 19.4444 -0.000151992H23.6111C24.0046 -0.000151992 24.3343 0.132718 24.6 0.398459C24.8667 0.665126 25 0.995218 25 1.38874V5.5554C25 5.94892 24.8667 6.27901 24.6 6.54568C24.3343 6.81142 24.0046 6.94429 23.6111 6.94429Z" fill="#0E7465"/>
    </symbol>

    <symbol viewBox="0 0 22 22" fill="none" id="setting">
        <path d="M18.6329 11.9766C18.6766 11.6527 18.7 11.3266 18.7031 11C18.7 10.6734 18.6766 10.3473 18.6329 10.0234L20.803 8.36817C20.901 8.29524 20.968 8.18968 20.9911 8.07167C21.0142 7.95366 20.9919 7.83148 20.9283 7.72852L18.8735 4.25685C18.814 4.15272 18.7174 4.07339 18.602 4.03382C18.4866 3.99424 18.3604 3.99716 18.247 4.04201L15.686 5.04787C15.1531 4.65162 14.5704 4.32343 13.9519 4.07131L13.566 1.41994C13.549 1.30262 13.4888 1.19533 13.3966 1.11807C13.3044 1.04081 13.1865 0.998858 13.0649 1.00002H8.94517C8.82356 0.998858 8.70566 1.04081 8.61345 1.11807C8.52124 1.19533 8.46101 1.30262 8.44399 1.41994L8.05809 4.07131C7.43888 4.32186 6.85592 4.65016 6.32401 5.04787L3.75297 4.04201C3.63962 3.99716 3.51336 3.99424 3.39796 4.03382C3.28257 4.07339 3.18601 4.15272 3.1265 4.25685L1.07167 7.72852C1.00812 7.83148 0.98577 7.95366 1.00889 8.07167C1.032 8.18968 1.09896 8.29524 1.19696 8.36817L3.36205 10.0234C3.31856 10.3473 3.29513 10.6734 3.29188 11C3.29496 11.3266 3.31839 11.6527 3.36205 11.9766L1.19696 13.6318C1.09896 13.7048 1.032 13.8103 1.00889 13.9283C0.98577 14.0463 1.00812 14.1685 1.07167 14.2715L3.1265 17.7431C3.18601 17.8473 3.28257 17.9266 3.39796 17.9662C3.51336 18.0058 3.63962 18.0028 3.75297 17.958L6.31399 16.9521C6.84689 17.3484 7.42965 17.6766 8.04806 17.9287L8.43397 20.5801C8.45099 20.6974 8.51122 20.8047 8.60343 20.8819C8.69564 20.9592 8.81353 21.0011 8.93515 21H13.0448C13.1664 21.0011 13.2843 20.9592 13.3765 20.8819C13.4687 20.8047 13.529 20.6974 13.546 20.5801L13.9319 17.9287C14.5511 17.6781 15.1341 17.3498 15.666 16.9521L18.227 17.958C18.3403 18.0028 18.4666 18.0058 18.582 17.9662C18.6974 17.9266 18.7939 17.8473 18.8535 17.7431L20.9083 14.2715C20.9718 14.1685 20.9942 14.0463 20.9711 13.9283C20.948 13.8103 20.881 13.7048 20.783 13.6318L18.6329 11.9766ZM11 14.5059C10.2881 14.5068 9.59186 14.302 8.99944 13.9174C8.40702 13.5327 7.94502 12.9855 7.67189 12.345C7.39876 11.7045 7.32678 10.9994 7.46506 10.319C7.60335 9.63865 7.94567 9.01351 8.44872 8.52272C8.95178 8.03193 9.59295 7.69754 10.2911 7.56187C10.9893 7.4262 11.7131 7.49535 12.3709 7.76055C13.0287 8.02576 13.591 8.47511 13.9866 9.05175C14.3823 9.62839 14.5934 10.3064 14.5934 11C14.5941 11.4602 14.5016 11.9159 14.3214 12.3413C14.1411 12.7666 13.8765 13.1531 13.5427 13.4787C13.209 13.8043 12.8126 14.0626 12.3763 14.2389C11.94 14.4151 11.4723 14.5059 11 14.5059V14.5059Z" stroke="#0E7465" stroke-width="1.5" stroke-linecap="round" stroke-linejoin="round"/>
    </symbol>

    <symbol viewBox="0 0 22 22" fill="none" id="sound">
        <path d="M14.8462 7.66667C14.8462 7.66667 16.7895 8.61905 16.7895 11C16.7895 13.381 14.8462 14.3333 14.8462 14.3333M16.3846 1.95238C19.4615 3.85714 21 6.71429 21 11C21 15.2857 19.4615 18.1429 16.3846 20.0476M1 6.71429V15.2857H4.84615L11 21V1L4.84615 6.71429H1Z" stroke="#0E7465" stroke-width="1.5" stroke-linecap="round" stroke-linejoin="round"/>
    </symbol>

    <symbol viewBox="0 0 30 30" fill="none" id="flag">
        <path d="M14.9496 0C8.44961 0 2.89961 4.2 0.849609 10H29.1496C27.0496 4.2 21.4996 0 14.9496 0Z" fill="#EAE7E7"/>
        <path d="M14.9496 30C21.4996 30 27.0496 25.8 29.0996 20H0.849609C2.89961 25.85 8.44961 30 14.9496 30Z" fill="#ED4C5C"/>
        <path d="M0.85 10C0.3 11.55 0 13.25 0 15C0 16.75 0.3 18.45 0.85 20H29.15C29.7 18.45 30 16.75 30 15C30 13.25 29.7 11.55 29.15 10H0.85Z" fill="#428BC1"/>
    </symbol>

    <symbol viewBox="0 0 57 17" fill="none" id="arrow">
        <path d="M1 2L28.5 15L56 2" stroke="white" stroke-width="3"/>
    </symbol>

    <svg viewBox="0 0 2361 2482" fill="none" id="logo">
        <path d="M1195.78 358.74V1272.42H2096.61L2194.11 358.74H1195.78Z" fill="#50A18E"/>
        <path d="M272.44 1291.2C270.83 1395.4 279.31 1536.13 320.75 1696.44C357.91 1840.22 410.42 1956.52 456.98 2042.3C516.02 2111.71 607.93 2203.63 739.4 2284.17C911.87 2389.82 1075.08 2428.48 1176.88 2444.23C1176.88 2060.02 1176.88 1675.8 1176.88 1291.59L272.44 1291.2Z" fill="#50A18E"/>
        <path d="M891.389 2354.45C902.979 2355.73 888.709 2365.18 1173.18 2443.01V2319.17C1169.13 2311.66 1166.47 2303.53 1165.62 2295.08C1165.11 2290.01 1163.43 2288.61 1158.62 2288.81C1141.17 2289.55 1126.13 2295.99 1113.33 2307.62C1105.35 2314.87 1097.85 2322.64 1089.98 2330.02C1084.35 2335.29 1077.69 2338.85 1070.33 2341.17C1069.97 2340.18 1069.47 2339.28 1069.61 2339.17C1093.54 2319.67 1111.16 2293.34 1142.47 2281.77C1154.39 2277.37 1164.69 2270.67 1173.17 2262.37V2113.85C1173.04 2113.5 1172.89 2113.15 1172.76 2112.8C1163.77 2089.1 1161.94 2065.93 1173.17 2043.57V2008.52C1172.15 2007.75 1171.6 2006.81 1172.03 2004.83C1172.42 2004.86 1172.79 2004.94 1173.17 2004.98V1988.88C1164.84 1995.24 1156.43 2001.49 1148.02 2007.74C1146.43 2008.92 1144.52 2011.24 1142.62 2009.7C1135.53 2003.95 1128.04 1999.34 1118.72 1998.3C1118.27 1998.25 1117.45 1996.28 1117.75 1995.7C1119.72 1991.89 1123.52 1995.61 1127.04 1993.22C1121.66 1978.03 1122.36 1962.58 1124.61 1946.99C1123.13 1945.23 1121.47 1946.44 1119.95 1946.89C1117.41 1947.64 1114.11 1950.47 1112.48 1947.6C1110.49 1944.09 1110.58 1939.18 1112.33 1935.51C1114 1932.01 1117.2 1935.31 1119.63 1935.82C1124.27 1936.8 1127.97 1939.97 1133.34 1934.91C1137.83 1930.68 1145.81 1936.7 1146.16 1943.56C1146.37 1947.7 1144.47 1952.79 1151.85 1953.24C1154.44 1953.4 1152.9 1956.71 1152.49 1958.52C1151.59 1962.41 1148.72 1965.8 1149.39 1970.25C1152.99 1970.94 1155.35 1968.38 1158.25 1967.64C1160.6 1967.04 1162.89 1967.36 1162.68 1970.11C1161.97 1979.65 1167.56 1977.98 1173.17 1976.36V1907.39C1169.58 1907.14 1165.89 1906.33 1166.71 1901.77C1168.46 1891.97 1162.6 1893.98 1157.19 1893.95C1151.87 1893.92 1145.62 1896.15 1142.17 1889.91C1140.4 1886.71 1138.03 1882.04 1141.86 1879.57C1145.4 1877.29 1150.74 1875.78 1154.68 1876.66C1159.37 1877.7 1154.59 1882.63 1156.35 1886.42C1159.66 1885.9 1162.71 1885.26 1165.78 1884.96C1168.49 1884.69 1170.98 1885.04 1173.18 1885.87V1388.79C1171.25 1391.12 1169.74 1393.52 1167.76 1395.44C1165.83 1397.32 1162.29 1400.25 1161.07 1396.63C1156.68 1383.53 1148.36 1389.06 1141.83 1391.84C1137.09 1389.32 1140.07 1380.91 1133.92 1382.91C1129.55 1384.33 1134.03 1389.62 1133.64 1393.17C1133.6 1393.51 1133.75 1393.86 1133.73 1394.21C1133.62 1397.01 1135.82 1400.95 1130.59 1401.35C1126.12 1401.69 1125.64 1398.59 1125.72 1395.16C1125.76 1393.42 1125.62 1391.68 1125.64 1389.94C1125.68 1386.06 1124.62 1382.51 1120.13 1382.76C1115.87 1383 1117.93 1387.01 1117.46 1389.42C1117.2 1390.76 1117.38 1392.2 1117.39 1393.59C1117.42 1396.77 1116.61 1399.04 1112.7 1398.8C1109.42 1398.6 1108.8 1396.62 1108.73 1393.89C1108.64 1390.39 1108.38 1386.89 1108.07 1380.95C1101.46 1397.17 1099.97 1397.75 1088.42 1396.35C1080.26 1395.36 1087.06 1389.51 1084.31 1386.71C1080.79 1388.38 1077.15 1390.11 1072.72 1392.22C1070.36 1379.02 1073.71 1365.97 1070.61 1353.05C1064.99 1355.57 1068.18 1360.03 1064.84 1362.22C1057.36 1358.56 1053.94 1349.3 1045.58 1346.21C1042.36 1356.02 1045.34 1364.48 1048.58 1372.96C1043.42 1373.44 1040.7 1368.61 1036.17 1369.42C1034.4 1373.57 1036.88 1381.08 1032.89 1381.88C1022.4 1383.99 1024.69 1389.94 1026.39 1396.48C1026.96 1398.68 1026.96 1400.71 1024.06 1401.17C1021.25 1401.62 1020.54 1399.57 1020 1397.49C1019.39 1395.13 1018.99 1392.72 1018.32 1390.38C1017.91 1388.93 1016.79 1388.11 1015.2 1388.28C1013.54 1388.46 1012.76 1389.59 1012.86 1391.11C1012.99 1393.17 1013.16 1395.29 1013.74 1397.26C1014.72 1400.6 1014 1402.7 1010.32 1403.25C1006.66 1403.79 1006.27 1401.31 1006.43 1398.74C1006.73 1393.93 1004.08 1392.52 999.969 1393.04C995.569 1393.6 992.019 1391.29 987.729 1389.63C987.469 1391.64 987.399 1393.35 987.009 1394.98C986.169 1398.52 989.439 1403.84 982.609 1404.85C976.509 1405.75 973.919 1402.46 971.929 1397.35C970.529 1393.74 969.919 1389.31 965.829 1387.14C963.819 1388.7 964.169 1390.43 964.439 1392.09C965.289 1397.35 966.679 1402.15 958.099 1402.48C952.059 1402.71 952.619 1408.83 952.709 1413.21C952.779 1416.45 950.539 1421.41 954.479 1422.61C958.679 1423.89 961.739 1419.6 964.549 1416.53C965.249 1415.77 966.029 1414.78 966.929 1414.55C972.099 1413.24 977.999 1410.2 981.769 1416.34C985.309 1422.1 984.869 1427.96 977.669 1430.98C973.809 1432.6 972.069 1434.7 973.379 1438.86C974.729 1443.15 977.009 1446.65 981.949 1446.65C985.859 1446.66 992.829 1448.76 993.109 1444.95C993.859 1434.46 1000.33 1439.82 1005.35 1438.53C1004.87 1440.71 1004.78 1442.09 1004.26 1443.29C995.719 1463.23 995.709 1463.22 1012.25 1476.31C1013.07 1476.96 1013.87 1477.63 1014.6 1478.37C1017.37 1481.21 1018.23 1484.77 1015.65 1487.71C1013.15 1490.57 1009.76 1488.94 1007.18 1487.06C1004.96 1485.45 1002.63 1483.59 1001.27 1481.3C998.889 1477.29 995.949 1475.12 991.189 1475.55C988.589 1475.78 986.299 1474.97 985.319 1472.24C982.899 1465.44 979.479 1467.11 975.929 1471.75C974.199 1467.24 974.899 1460.05 971.739 1459.91C963.059 1459.51 958.459 1447.23 947.959 1452.74C945.139 1454.22 940.529 1452.25 936.729 1451.94C934.719 1451.77 931.269 1451.05 930.889 1451.79C927.779 1458 925.119 1463.57 919.509 1468.94C914.819 1473.43 908.889 1476.68 904.589 1481.64C897.429 1489.88 892.399 1480.39 885.919 1478.78C885.619 1493.83 873.879 1480.76 869.279 1485.92C871.589 1495.88 878.489 1504.25 880.159 1515.99C872.349 1512.91 869.209 1505.68 862.689 1502.44C862.719 1511.22 869.529 1517.96 867.069 1527.82C859.699 1520.73 857.869 1509.27 845.529 1509.38C845.529 1515.83 845.439 1522.32 845.559 1528.81C845.669 1534.9 842.889 1540.04 837.009 1539.77C830.789 1539.48 837.609 1532.66 834.099 1529.95C830.589 1529.89 829.059 1534.89 824.869 1533.59C824.529 1532.29 824.059 1530.96 823.869 1529.6C822.959 1523.28 815.629 1513.96 830.689 1514.97C832.039 1515.06 833.579 1512.69 832.639 1512.11C828.689 1509.68 824.979 1507.34 824.629 1502.12C810.659 1507.31 818.819 1493.85 815.029 1490.5C804.359 1496.78 804.309 1496.77 801.749 1508.8C801.209 1511.33 800.359 1514.29 798.069 1514.72C785.949 1516.95 790.119 1524.55 792.849 1531.98C786.539 1532.27 780.759 1532.58 784.659 1541.08C785.859 1543.68 784.109 1546.58 781.879 1548.5C776.639 1552.99 776.409 1558.31 778.359 1564.48C779.609 1568.43 780.029 1572.65 780.759 1576.76C781.439 1580.54 781.459 1583.68 776.059 1583.62C773.309 1583.59 768.979 1582.2 768.579 1586.75C768.219 1590.92 772.649 1591.27 775.359 1591.94C782.839 1593.77 785.209 1600.68 781.159 1604.1C774.449 1609.77 776.709 1616.58 774.979 1622.79C773.189 1629.24 775.469 1632.95 782.729 1631.93C795.729 1630.1 807.149 1634.72 818.949 1639.4C828.479 1643.18 830.009 1649.24 828.789 1658.56C821.929 1656.45 815.389 1651.98 809.199 1658.74C807.939 1660.11 805.109 1659.78 804.759 1658.05C802.489 1646.72 791.109 1648.37 784.279 1643.73C775.779 1637.96 775.219 1638.79 771.839 1648.28C763.209 1642.12 760.769 1633.57 761.929 1623.64C762.689 1617.16 760.389 1614.26 753.809 1616.49C746.829 1618.85 744.149 1616.44 745.059 1609.32C745.229 1607.95 745.129 1606.52 744.949 1605.15C744.589 1602.27 746.289 1597.51 742.089 1597.37C737.059 1597.21 740.369 1602.18 739.419 1604.7C738.449 1607.27 741.069 1613.29 737.089 1612.12C728.269 1609.52 732.009 1615.95 731.049 1618.87C730.329 1621.07 731.469 1625.57 729.369 1625.37C717.239 1624.24 718.899 1632.46 718.529 1639.78C718.449 1641.28 716.459 1642.59 715.839 1644.17C714.369 1647.94 705.669 1652.99 717.669 1654.78C720.539 1655.21 719.799 1658.77 719.819 1661.12C719.859 1665.99 719.369 1670.9 719.779 1675.74C720.589 1685.47 713.519 1685.65 707.429 1685.47C700.939 1685.27 696.209 1681.98 697.259 1674.13C698.089 1667.93 698.439 1661.65 699.429 1655.48C700.479 1648.92 696.679 1648.17 691.599 1647.52C684.559 1646.62 685.449 1651.2 685.489 1655.35C685.519 1658.79 686.169 1662.27 684.479 1665.41C680.889 1666.84 680.169 1660.89 677.309 1662.2C673.799 1667.44 682.289 1676.25 670.829 1678.29C668.819 1678.65 670.629 1681.95 671.799 1683.58C674.979 1688.04 679.639 1691.2 684.669 1691.92C693.729 1693.22 700.709 1697.13 705.639 1705.32C709.509 1696.67 716.219 1696.89 726.639 1705.25C720.499 1707.21 714.599 1709.1 708.689 1710.99C717.429 1713.52 724.619 1718.87 734.949 1717.62C741.059 1716.88 749.239 1719.77 756.429 1721.26C759.569 1721.91 758.039 1728.63 762.779 1728.4C777.069 1727.7 770.879 1733.6 767.069 1739.96C762.769 1747.14 758.829 1750.03 751.579 1743.32C749.069 1741 745.639 1738.7 740.699 1739.03C741.829 1744.29 742.579 1749.41 744.069 1754.3C746.869 1763.47 738.349 1763.43 734.129 1766.2C729.269 1769.39 729.109 1763.44 727.339 1761.03C723.869 1756.3 723.359 1749.52 716.529 1745.25C717.179 1750.65 717.859 1754.69 718.079 1758.75C718.189 1760.82 720.189 1764.19 716.299 1764.64C712.719 1765.06 713.269 1761.36 712.789 1759.3C710.349 1748.94 708.179 1738.52 705.729 1727.23C700.449 1730.91 696.259 1733.83 692.259 1736.61C689.259 1734.76 691.939 1728.63 688.989 1730C678.139 1735.02 676.459 1723.99 670.199 1719.64C670.199 1724.44 670.199 1728.19 670.199 1732.55C663.219 1730.26 659.519 1723.16 650.009 1721.48C657.749 1734.04 642.699 1742.29 647.319 1753.81C647.679 1754.71 645.069 1757.03 643.569 1758.39C639.959 1761.66 636.449 1765.18 632.379 1767.77C629.559 1769.56 627.399 1775.92 623.579 1772.21C620.109 1768.84 618.679 1763.07 621.129 1757.7C621.549 1756.78 622.479 1756.1 623.029 1755.23C625.799 1750.82 626.269 1746.41 624.199 1741.36C621.609 1735.04 615.849 1730.94 612.739 1726.14C607.359 1717.86 605.339 1724.15 603.719 1726.36C598.249 1733.84 599.609 1742.32 602.879 1750.17C604.959 1755.16 605.939 1760.09 605.999 1765.33C606.049 1769.64 604.479 1773.47 599.689 1773.11C594.959 1772.76 596.509 1768.06 596.909 1765.56C598.759 1754.17 594.279 1747.98 582.919 1746.36C580.559 1746.02 578.389 1744.38 576.029 1744.05C573.459 1743.69 570.809 1740.28 568.449 1743.01C566.189 1745.63 569.329 1748.1 570.259 1750.54C574.249 1760.98 572.399 1764.86 562.269 1765.13C556.429 1765.28 554.759 1767.02 556.659 1772.6C557.929 1776.33 558.279 1780.08 553.709 1782.43C550.549 1784.06 545.149 1785.95 549.149 1790.45C553.899 1795.79 554.129 1787.46 557.089 1786.67C557.619 1786.53 558.259 1786.84 559.129 1786.99C560.349 1792.64 563.289 1799.32 555.229 1801.82C548.139 1804.02 541.509 1802.77 539.509 1793.45C538.839 1790.32 536.589 1787.54 535.059 1784.59C534.499 1795 525.129 1790.09 519.999 1793.9C525.069 1797.83 521.879 1802.4 521.279 1807.08C520.809 1810.71 519.269 1815.71 522.479 1817.95C525.839 1820.3 529.709 1817.06 532.849 1814.9C537.649 1811.59 542.469 1810.01 548.519 1811.5C555.069 1813.12 557.509 1815.04 553.169 1821.79C548.799 1828.59 543.649 1835.19 541.429 1843.91C549.129 1843.91 556.099 1844.27 563.009 1843.81C569.609 1843.37 572.909 1845.2 571.839 1852.43C571.309 1856.01 572.019 1859.06 576.399 1860.56C580.389 1861.93 583.719 1862.48 586.909 1859.24C589.109 1857.01 591.469 1854.94 593.609 1852.65C601.219 1844.52 609.159 1849.77 616.709 1852.38C624.079 1854.93 629.349 1859.84 629.869 1869.67C617.869 1862.48 608.559 1863.83 601.199 1874.88C599.609 1877.27 598.069 1879.84 594.259 1875.4C591.699 1872.42 584.249 1869.53 583.379 1878.61C582.809 1884.57 580.499 1882.59 576.649 1881.86C568.209 1880.26 557.459 1878.43 551.999 1884.58C545.329 1892.09 544.499 1887.01 541.459 1883.05C540.259 1881.49 539.579 1879.19 536.679 1879.01C534.469 1882.3 537.439 1888.35 532.909 1889.93C519.269 1894.68 529.249 1897.58 533.809 1899.37C540.649 1902.05 540.629 1905.19 537.379 1910.93C535.099 1914.96 530.379 1918.68 532.359 1924.47C535.829 1924.64 537.589 1922.44 538.819 1920.66C544.949 1911.79 551.149 1910 558.789 1919.03C560.089 1920.56 563.109 1925.38 565.489 1919.05C566.779 1915.62 569.679 1915.2 571.959 1917.91C573.999 1920.34 574.659 1922.85 571.399 1925.89C564.979 1931.86 565.999 1939.16 573.189 1944.64C576.549 1947.2 581.299 1948.13 584.139 1953.5C575.789 1955.48 568.529 1958.11 561.109 1958.67C555.349 1959.1 559.059 1952.37 556.729 1949.71C556.319 1949.24 555.449 1948.55 555.119 1948.7C543.169 1954.02 543.949 1944.42 542.089 1937.75C541.719 1936.42 540.379 1935.62 538.759 1936.05C536.439 1956.42 533.209 1958.93 520.059 1950.6C519.599 1961.02 519.609 1961.05 509.729 1964.82C508.339 1965.35 507.129 1965.84 507.149 1967.51C507.179 1969.71 508.899 1970.3 510.579 1970.77C514.909 1971.97 520.159 1970.95 524.109 1976.51C514.289 1977.93 511.069 1990 499.569 1987.43C494.979 1986.4 497.279 1991.25 498.519 1993.3C500.229 1996.11 500.549 2002.31 505.629 1999.35C508.009 1997.96 509.379 1994.07 512.709 1996.36C515.549 1998.31 513.219 2001.61 512.639 2004.08C509.499 2017.48 509.399 2017.43 522.519 2020.45C523.449 2020.66 524.239 2021.49 525.379 2022.21C522.589 2024.26 516.989 2023.23 518.789 2029.37C521.059 2037.11 519.899 2044.76 515.049 2053.23C522.189 2050.63 528.879 2042.34 530.269 2056.6C530.949 2063.62 543.259 2064.13 548.099 2057.93C554.279 2050.02 559.769 2041.49 570.049 2037.88C574.119 2036.45 577.549 2034.39 577.589 2041.08C577.649 2050.73 582.579 2044.86 585.689 2043.73C590.159 2055.79 580.329 2056 572.069 2058.22C579.819 2065.35 576.829 2072 571.969 2077C566.449 2082.67 563.259 2072.73 557.499 2073.42C558.779 2085.47 547.859 2078.61 542.509 2082.44C548.949 2088.65 551.849 2094.12 544.809 2102.39C540.869 2107.02 544.739 2113.64 551.249 2116.38C559.629 2119.91 558.019 2112.58 559.679 2108.69C559.989 2107.96 561.089 2107.57 561.899 2106.97C564.439 2109.49 563.689 2114.22 567.959 2115.01C568.509 2114.43 568.969 2113.96 569.409 2113.46C572.879 2109.54 572.119 2100.17 578.219 2101.41C582.729 2102.32 579.579 2110.67 580.319 2115.64C580.699 2118.19 579.039 2121.87 582.659 2122.88C589.059 2124.68 593.499 2132.62 601.859 2128.56C605.469 2126.81 606.449 2129.78 606.899 2132.96C607.309 2135.86 606.209 2139.21 608.809 2141.64C626.029 2133.51 626.029 2133.51 650.299 2134.16C651.629 2137.59 646.329 2142.52 652.759 2144.89C658.939 2147.16 660.359 2143.47 662.089 2138.65C664.029 2133.24 664.989 2125.65 671.209 2124.38C676.579 2123.28 682.439 2124.87 687.289 2120.68C688.049 2120.03 689.909 2120.81 690.669 2122.33C691.759 2124.52 689.939 2128.89 694.299 2128.56C698.319 2128.26 697.319 2123.66 698.969 2121.22C703.759 2114.14 711.099 2115.51 717.879 2115.14C723.629 2114.83 721.989 2119.46 722.409 2122.56C722.999 2126.91 725.549 2126.39 728.379 2125.03C730.759 2123.89 731.069 2120.09 734.009 2120.05C738.229 2121.84 734.339 2128.03 738.889 2128.51C744.129 2129.06 742.139 2123.32 744.179 2120.93C745.729 2119.1 747.139 2117.11 748.879 2115.49C752.849 2111.79 760.949 2114.77 762.579 2110.13C764.179 2105.58 756.659 2101.43 756.859 2094.72C763.009 2096.84 763.869 2103.76 768.859 2105.79C772.769 2104.24 766.419 2095.03 775.489 2097.45C783.869 2099.69 799.479 2089.1 801.439 2080.06C802.049 2077.25 800.249 2073.29 804.779 2072.39C808.589 2071.63 809.989 2075.25 812.319 2077.15C814.099 2078.6 814.809 2081.44 817.819 2081.4C822.099 2077.8 818.639 2070.98 823.569 2067.38C825.999 2071.33 823.269 2074.78 823.129 2078.35C823.009 2081.21 819.799 2085.77 826.099 2086.2C832.159 2086.61 830.189 2081.87 830.359 2078.86C830.969 2068.11 842.899 2053.12 853.089 2050.53C855.259 2049.98 857.839 2049.82 858.839 2051.61C860.169 2053.98 857.389 2054.98 855.889 2056.31C852.399 2059.38 845.639 2059.83 845.849 2065.76C846.139 2073.82 846.399 2082.07 849.229 2090.72C859.189 2082.37 856.359 2063.32 874.799 2064.73C875.799 2070.7 875.249 2078.98 885.999 2077.22C884.089 2068.75 890.999 2061 886.759 2052.15C885.189 2048.87 890.489 2049.04 892.899 2049.55C899.549 2050.94 895.159 2060.3 900.569 2061.62C905.689 2062.87 908.779 2053.56 915.409 2057.2C917.959 2058.6 919.789 2061.75 923.669 2059.58C928.489 2056.89 933.079 2058.79 937.459 2061.29C942.899 2064.4 948.449 2067.31 953.829 2070.51C986.409 2089.84 1017.57 2111.87 1054.22 2123.47C1055.94 2124.01 1057.54 2124.72 1058.11 2126.57C1062.45 2140.87 1073.79 2150.11 1082.89 2160.98C1085.55 2164.15 1089.4 2167.2 1088.99 2171.59C1088.23 2179.62 1092.41 2185.55 1096.04 2191.83C1100.41 2199.4 1104.05 2207.3 1106.45 2215.7C1113.82 2241.47 1105.59 2262.51 1082.86 2276.7C1071.82 2283.59 1059.9 2288.54 1047.25 2291.17C1032.98 2294.14 1020.13 2299.86 1008.41 2308.28C1000.88 2313.69 992.509 2316.88 983.449 2318.22C972.569 2319.83 962.639 2323.62 953.619 2329.92C947.509 2334.19 940.779 2336.39 933.239 2337.13C918.719 2338.55 904.239 2340.41 889.819 2342.63C866.789 2346.17 887.629 2335.82 864.499 2338.36M556.539 1842.82C555.519 1844.48 553.219 1846.76 555.439 1848.08C574.939 1859.64 555.909 1867.9 552.589 1876.96C550.589 1882.41 545.149 1886.6 541.259 1891.35C539.769 1893.17 538.439 1896.32 535.659 1894.38C533.709 1893.02 533.569 1889.9 534.609 1887.51C535.749 1884.9 537.439 1882.53 538.719 1879.97C540.689 1876.03 540.799 1871.77 538.379 1868.25C535.719 1864.37 531.829 1866.54 528.299 1867.47C523.989 1868.61 519.629 1869.59 511.549 1867.66C531.049 1857.75 532.539 1831.74 556.479 1829.85C558.429 1829.7 560.389 1829.5 564.929 1829.09C561.179 1835.25 558.859 1839.04 556.539 1842.82ZM766.799 1979.89C767.519 1986.7 760.229 1983.52 756.319 1984.35C750.099 1985.68 741.169 1980.33 739.339 1992.45C738.819 1995.87 734.219 1994.54 733.809 1990.8C733.239 1985.53 733.669 1980.16 733.669 1972.36C734.619 1968.01 729.779 1958.64 738.449 1955.01C747.019 1951.43 755.889 1953.91 764.189 1958.97C774.199 1965.09 766.069 1973.03 766.799 1979.89ZM770.949 1854.73C766.899 1858.45 762.209 1861.5 757.679 1854.77C756.329 1852.76 754.309 1851.22 752.649 1849.41C749.279 1845.72 742.049 1843.71 744.609 1837.18C747.429 1830 755.449 1831.02 761.019 1829.31C762.379 1829.31 763.249 1829.11 763.999 1829.34C768.749 1830.82 774.639 1851.35 770.949 1854.73ZM808.629 1869.62C805.029 1870.09 798.549 1867.27 798.739 1873.29C798.919 1878.7 796.929 1887.14 804.459 1889.19C811.089 1891 810.399 1894.67 809.969 1899.2C809.259 1906.57 808.569 1913.94 807.709 1921.3C806.169 1934.46 785.379 1943.76 774.579 1936.27C771.529 1934.15 772.979 1932.14 774.199 1930.04C776.469 1926.13 779.069 1922.39 781.099 1918.36C782.599 1915.39 787.919 1911.46 779.599 1909.72C776.469 1909.07 777.409 1905.79 777.539 1903.47C777.729 1899.93 780.609 1900.21 782.979 1900.06C787.749 1899.78 793.029 1900.9 796.099 1894.84C791.569 1890.26 778.419 1895.09 784.499 1881.37C786.089 1877.77 777.339 1880.01 772.969 1874.93C780.549 1867.04 788.459 1858.6 796.609 1850.41C800.429 1846.57 803.619 1850.26 806.229 1852.37C810.829 1856.09 818.959 1857.22 819.159 1864.24C819.339 1870.43 812.989 1869.05 808.629 1869.62ZM1043.33 1751.87C1051.02 1751.39 1057.1 1752.65 1056.85 1762.04C1056.63 1770.19 1051.72 1772.51 1044.47 1772.03C1036.8 1771.53 1028.38 1768.97 1028.01 1761.22C1027.57 1752.48 1036.09 1751.25 1043.33 1751.87ZM921.239 1904.39C925.549 1899.96 934.039 1897.75 941.439 1903.62C954.019 1913.59 966.769 1923.29 973.139 1938.71C975.289 1943.92 980.329 1952.08 965.509 1947.12C961.489 1945.47 958.299 1950.61 953.859 1952.15C951.449 1952.98 947.989 1954.69 946.289 1951.18C945.009 1948.53 946.899 1946.48 949.529 1945.62C957.309 1943.06 952.829 1939.59 949.809 1937.24C942.399 1931.46 934.349 1926.48 927.039 1920.58C921.969 1916.47 916.079 1909.69 921.239 1904.39ZM872.379 1903.29C871.159 1903.33 869.929 1903.3 867.789 1903.3C864.529 1901.04 856.409 1907.66 855.759 1899.62C855.169 1892.22 859.789 1885.63 868.139 1883.48C868.919 1883.28 869.759 1883.12 870.559 1883.16C878.679 1883.57 889.799 1883.19 890.619 1892.54C891.559 1903.08 880.629 1903.05 872.379 1903.29ZM994.759 2025.14C991.179 2028.38 987.229 2024.1 983.829 2022.33C950.959 2005.28 918.869 1986.84 887.789 1966.69C884.359 1964.47 879.809 1962.9 877.829 1955.93C891.409 1955.93 903.709 1956.02 916.009 1955.91C952.939 1955.58 972.609 1981.61 993.019 2006.4C994.479 2008.18 995.059 2010.91 995.439 2013.3C996.069 2017.32 997.729 2022.45 994.759 2025.14ZM1049.3 2026.2C1034.68 2022.09 1024.48 2014.95 1018.73 2000.13C1012.84 1984.94 1003.5 1971.11 995.959 1956.53C993.969 1952.69 991.259 1948.89 991.499 1942.6C997.699 1948.13 1003.29 1952.7 1008.37 1957.77C1012.91 1962.3 1017.11 1964.9 1023.04 1959.94C1024.84 1958.43 1028.14 1955.38 1029.42 1960.6C1030.06 1963.21 1030.63 1966.93 1026.28 1967.14C1016.79 1967.61 1021.64 1972.81 1023.69 1975.88C1027.78 1982 1032.62 1987.63 1037.21 1993.41C1044.76 2002.93 1050.12 2013.2 1049.3 2026.2ZM1050.92 1960.7C1048.14 1961.64 1046.58 1958.93 1044.93 1957.29C1034.13 1946.52 1023.41 1935.66 1012.68 1924.81C1000.79 1912.8 988.889 1900.8 977.079 1888.71C975.199 1886.78 971.049 1883.56 973.389 1882.05C978.059 1879.05 983.979 1877.49 989.589 1876.6C994.189 1875.87 992.689 1880.48 992.819 1882.9C993.209 1890.02 993.119 1897.4 1001.37 1900.35C1003.77 1901.21 1007.03 1903.21 1009.4 1900.68C1011.32 1898.64 1009.5 1896.07 1008.71 1893.77C1006.51 1887.33 1004.39 1880.86 1002.04 1873.8C1010.04 1873.45 1013.97 1877.98 1018.01 1881.72C1029.58 1892.44 1038.64 1905.14 1047.14 1918.41C1054.4 1929.76 1053.46 1941.98 1053.31 1954.29C1053.28 1956.64 1053.82 1959.73 1050.92 1960.7ZM1068.71 1859.32C1057.87 1858.91 1039.85 1841.73 1037.99 1830.51C1037.35 1826.63 1039.59 1825.11 1042.09 1823.93C1045.46 1822.34 1048.57 1817.31 1052.86 1821.19C1062.31 1829.73 1071.38 1834.13 1082.58 1823.48C1085.32 1820.88 1090.51 1821.67 1092.49 1826.95C1097.09 1839.14 1081.93 1859.82 1068.71 1859.32ZM1093.67 1764.16C1093.12 1768.59 1090.63 1771.68 1085.69 1771.8C1082.44 1771.88 1079.19 1771.81 1074.9 1771.81C1072.23 1769.96 1064.1 1776.38 1064.61 1766.4C1064.95 1759.87 1066.35 1753.84 1075.52 1756.81C1077.98 1757.61 1080.16 1756.4 1082.27 1754.9C1084.98 1752.97 1086.84 1747.68 1091.07 1750.57C1095.83 1753.81 1094.25 1759.42 1093.67 1764.16ZM954.649 2338.2C979.809 2330.17 1002.83 2317.97 1026.44 2307.12C1031.16 2304.95 1035.99 2302.64 1041.02 2301.6C1059.91 2297.71 1077.86 2291.7 1093.95 2280.75C1095.51 2279.69 1097.41 2278.31 1099.7 2279.28C1093.09 2297.22 983.209 2342.36 954.649 2338.2Z" fill="#0E7465"/>
        <path d="M1175.86 357.79L1181.09 1265.44C1381.72 1261.98 1581.74 1268.33 1782.37 1264.87C1766.53 1241.92 1743.02 1199.13 1710.35 1161.66C1677.75 1124.27 1661.23 1111.05 1663.65 1091.61C1667.23 1062.92 1708.78 1046.17 1744.08 1031.94C1772.17 1020.62 1823.84 1008.45 1881.67 1007.24C1883.4 1004.65 1890.68 1001.78 1892.4 999.19C1869.38 997.78 1823.7 996.33 1785.58 1000.81C1714.71 1009.15 1687.61 1027.13 1629.92 1021.57C1600.43 1018.73 1562.87 1015.11 1549.49 990.44C1530.92 956.21 1576.16 912.49 1559.87 894.45C1541.98 874.63 1471.73 903.58 1435.34 922.99C1386.88 948.84 1370.07 972.9 1339.35 967.09C1314.36 962.37 1296.63 941 1292.65 935.96C1284.96 926.21 1272.65 910.59 1274.49 891.86C1277.24 863.89 1308.82 856.59 1308.22 832.19C1307.9 819.26 1298.77 810.65 1292.65 803.65C1259.78 766 1244.02 694.31 1261.52 658.36C1284.75 610.63 1371.5 633.97 1388.65 588.31C1398.34 562.51 1375.1 544.99 1386.06 528.64C1405.83 499.14 1503.49 523.34 1572.86 562.37C1625.01 591.72 1659.36 628.43 1679.23 653.17C1610.7 562.9 1609.28 518.66 1622.15 494.91C1634.97 471.27 1661.65 468.05 1702.58 427.46C1726.78 403.45 1743.36 374.65 1752.87 357.8C1561.3 358.71 1367.42 356.88 1175.86 357.79Z" fill="#0E7465"/>
        <path d="M1482.05 653.17C1495.02 678.25 1507.99 703.33 1520.97 728.41C1481.19 728.41 1441.41 728.41 1401.63 728.41C1401.1 739.48 1402.3 757.57 1414.6 769.92C1416.84 772.17 1423.12 777.92 1453.52 785.49C1470.58 789.74 1484.98 792 1495.03 793.27C1559.89 803.65 1624.75 814.03 1689.61 824.4C1637.72 802.78 1585.83 781.16 1533.95 759.54L1613.31 746.26L1482.05 653.17Z" fill="#0E7465"/>
        <path d="M1575.73 618.109C1689.34 685.199 1802.95 752.289 1916.56 819.389C1897.12 819.629 1871.03 821.889 1841.42 830.119C1811.87 838.339 1788.41 849.839 1771.64 859.639C1771.64 863.219 1771.64 866.799 1771.64 870.369C1782.93 870.069 1794.57 870.049 1806.53 870.369C1854.2 871.629 1897.41 877.939 1935.35 886.469C1934.03 905.219 1928.39 947.629 1897.78 988.449C1851.7 1049.89 1783.7 1061.44 1768.96 1063.59C1809.93 1086.35 1836.63 1112.79 1852.15 1130.68C1866.07 1146.72 1882.95 1166.53 1895.09 1197.77C1907.48 1229.67 1908.95 1258.13 1908.51 1275.6C1912.98 1275.6 1917.46 1275.6 1921.93 1275.6C1925.06 1255.11 1927.45 1221.11 1916.56 1181.67C1899.62 1120.26 1860.88 1083.25 1844.1 1068.96C1876.17 1049.15 1897.8 1027.81 1911.19 1012.6C1926.51 995.209 1920.51 998.309 1975.6 897.199C1986.4 877.379 1997.11 858.089 1994.39 832.789C1992.87 818.689 1987.7 807.619 1983.66 800.589C1969.35 796.119 1955.03 791.639 1940.72 787.169C1819.05 730.819 1697.39 674.469 1575.73 618.109Z" fill="#0E7465"/>
        <path d="M271.46 1264.88C594.13 1264.88 840.99 1264.88 1162.44 1264.88C1171.78 1264.88 1161.11 1232.68 1170.49 1232.68C1197.24 1232.68 1175.27 1241.13 1173.17 1189.74C1170.26 1118.16 1189.23 1054.3 1175.85 1036.77C1162.17 1018.84 1180.85 957.6 1167.92 940.73C1135.24 898.08 1104.06 858.08 1069.94 817.09C1060.09 837.11 1050.24 857.14 1040.39 877.16C1020.89 838.7 987.85 783.6 933.42 729.72C899.98 696.61 878.78 684.08 843.4 653.7C804.4 620.21 753.84 532.97 700.8 454.42C670.06 502.43 636.55 590.24 605.77 647.81C574.19 706.88 547.12 763.64 523.86 817.1C478.35 782.51 437.01 720.98 391.5 686.39C376.94 700.95 358.21 742.47 343.65 757.03C321.1 777.08 307.95 796.71 299.96 811.64C286.76 836.3 286.61 850.06 272.66 882.63C272.66 882.63 261.96 907.6 239.89 942.7C225.37 965.8 226.78 945.5 225.83 975.05C223.15 1058.24 280.09 1181.69 249.98 1211.21M458.34 942.69C376.43 990.02 350.69 1040.43 268.78 1087.76C306.35 1001.88 294.44 955.27 305.43 915.39C308.49 904.31 313.83 882.58 327.27 855.32C347.33 814.65 373.37 786.08 392.8 767.95C408.6 779.35 425.08 792.05 441.95 806.18C457.42 819.12 471.64 831.95 484.67 844.41L398.26 937.24L458.34 942.69ZM496.56 1122.89C532.97 1077.38 569.37 1031.88 605.78 986.37C595.17 980.76 581.44 972.11 567.55 959.07C555.14 947.41 546.33 935.73 540.25 926.3L646.74 793.95C629.45 787.1 612.15 780.24 594.86 773.39C609.28 738.49 625.57 701.96 644.01 664.17C662.04 627.22 680.39 592.63 698.62 560.41C705.9 605.92 713.18 651.42 720.46 696.93C731.94 697.59 744.76 697.74 758.69 696.93C774.93 695.99 789.59 693.94 802.38 691.47L742.31 773.38C773.26 798.86 804.2 824.35 835.14 849.83C816.94 868.03 798.73 886.24 780.53 904.44C815.12 904.44 849.7 904.44 884.29 904.44C755.04 977.27 625.8 1050.08 496.56 1122.89ZM940.5 1122.89C948.17 1097.47 958.27 1069.86 971.66 1040.98C976.99 1029.48 982.48 1018.56 988.04 1008.21C969.84 1010.03 951.63 1011.85 933.43 1013.67C948.51 997.61 964.87 981.15 982.58 964.52C1008.75 939.94 1046.63 905.66 1071.2 886.47C1081.03 896.43 1089.97 923.5 1100.72 942.83C1113.67 966.11 1110.71 987.53 1113.64 1002.75C1055.93 1042.8 998.21 1082.85 940.5 1122.89Z" fill="#AC8533"/>
        <path d="M2233.54 340.35H127.569C68.4493 340.35 20.5293 292.29 20.5293 233V84.7702C20.5293 49.5502 48.9993 20.9902 84.1193 20.9902H325.219C334.569 20.9902 342.829 27.0603 345.629 35.9803L369.039 110.63C371.839 119.57 380.129 125.66 389.499 125.66H640.829C650.589 125.66 659.119 119.07 661.579 109.63L680.529 36.9902C682.989 27.5702 691.489 21.0002 701.229 21.0002H984.399C994.069 21.0002 1002.55 27.4702 1005.09 36.8002L1025.03 109.86C1027.58 119.19 1036.05 125.66 1045.72 125.66H1306.28C1315.16 125.66 1323.12 120.19 1326.3 111.9L1352.88 35.4203C1355.88 26.7903 1364.02 21.0002 1373.16 21.0002H1649.78C1659.8 21.0002 1668.48 27.9702 1670.67 37.7802L1686.55 108.89C1688.74 118.7 1697.42 125.67 1707.44 125.67H1968.78C1978.2 125.67 1986.52 119.5 1989.25 110.48L2011.76 36.1902C2014.49 27.1702 2022.81 21.0002 2032.23 21.0002H2276.95C2312.07 21.0002 2340.54 49.5502 2340.54 84.7802V233C2340.58 292.29 2292.66 340.35 2233.54 340.35Z" stroke="#AC8533" stroke-width="40" stroke-miterlimit="10"/>
        <path d="M1701.85 2246.98C1630.62 2296.76 1569.07 2321.41 1445.97 2370.71C1337.23 2414.26 1243.74 2442.53 1177.21 2460.45C1111.96 2444.47 1023.14 2418.96 921.61 2377.73C906.85 2371.74 735.57 2301.55 631.04 2228.3C402.93 2068.46 326.1 1777.35 300.11 1646.57L146.75 341.69H2204.98L2051.62 1657.25C2042.56 1731.11 2020.23 1834.49 1962.83 1945.44C1870.27 2124.38 1739.41 2220.74 1701.85 2246.98Z" stroke="#AC8533" stroke-width="40" stroke-miterlimit="10"/>
        <path d="M1177.21 354L1176.88 2451.06" stroke="#AC8533" stroke-width="40" stroke-miterlimit="10"/>
        <path d="M259.709 1281.54H2092.91" stroke="#AC8533" stroke-width="40" stroke-miterlimit="10"/>
        <path d="M1375.8 1290.37L1177.2 1625.83" stroke="#AC8533" stroke-width="40" stroke-miterlimit="10"/>
        <path d="M1177.2 2125L1656.24 1281.54" stroke="#AC8533" stroke-width="40" stroke-miterlimit="10"/>
        <path d="M1936.49 1280.95L1284.35 2429.57" stroke="#AC8533" stroke-width="40" stroke-miterlimit="10"/>
        <path d="M2063.73 1551.02L1628.97 2291.72" stroke="#AC8533" stroke-width="40" stroke-miterlimit="10"/>
    </svg>

    <symbol viewBox="0 0 24 24" fill="none" id="email">
        <path d="M22 6C22 4.9 21.1 4 20 4H4C2.9 4 2 4.9 2 6M22 6V18C22 19.1 21.1 20 20 20H4C2.9 20 2 19.1 2 18V6M22 6L12 13L2 6" stroke="currentColor" stroke-width="2" stroke-linecap="round" stroke-linejoin="round"/>
    </symbol>

    <symbol viewBox="0 0 16 20" fill="none" id="personInput">
        <path d="M8 1.42857C8.79113 1.42857 9.56448 1.63803 10.2223 2.03047C10.8801 2.4229 11.3928 2.98068 11.6955 3.63327C11.9983 4.28587 12.0775 5.00396 11.9231 5.69675C11.7688 6.38954 11.3878 7.02591 10.8284 7.52538C10.269 8.02485 9.55628 8.365 8.78036 8.5028C8.00444 8.64061 7.20017 8.56988 6.46927 8.29957C5.73836 8.02926 5.11365 7.5715 4.67412 6.98418C4.2346 6.39686 4 5.70636 4 5C4 4.0528 4.42143 3.14439 5.17157 2.47462C5.92172 1.80485 6.93913 1.42857 8 1.42857ZM8 0C6.89242 0 5.80972 0.293245 4.88881 0.842652C3.96789 1.39206 3.25013 2.17295 2.82627 3.08658C2.40242 4.00021 2.29152 5.00555 2.5076 5.97545C2.72368 6.94536 3.25703 7.83627 4.0402 8.53553C4.82338 9.2348 5.8212 9.711 6.90749 9.90393C7.99379 10.0969 9.11976 9.99784 10.143 9.6194C11.1663 9.24096 12.0409 8.6001 12.6562 7.77785C13.2716 6.95561 13.6 5.98891 13.6 5C13.6 3.67392 13.01 2.40215 11.9598 1.46447C10.9096 0.526784 9.48521 0 8 0ZM16 20H14.4V16.4286C14.4 15.4814 13.9786 14.573 13.2284 13.9032C12.4783 13.2334 11.4609 12.8571 10.4 12.8571H5.6C4.53913 12.8571 3.52172 13.2334 2.77157 13.9032C2.02143 14.573 1.6 15.4814 1.6 16.4286V20H0V16.4286C0 15.1025 0.589998 13.8307 1.6402 12.893C2.69041 11.9554 4.11479 11.4286 5.6 11.4286H10.4C11.8852 11.4286 13.3096 11.9554 14.3598 12.893C15.41 13.8307 16 15.1025 16 16.4286V20Z" fill="black" fill-opacity="0.35"/>
    </symbol>

    <symbol viewBox="0 0 20 20" fill="none" id="keyInput">
        <path d="M13.5691 7.85714C14.358 7.85714 14.9976 7.21755 14.9976 6.42857C14.9976 5.63959 14.358 5 13.5691 5C12.7802 5 12.1406 5.63959 12.1406 6.42857C12.1406 7.21755 12.7802 7.85714 13.5691 7.85714Z" fill="black" fill-opacity="0.35"/>
        <path d="M13.5704 1.72894e-07C12.5666 -0.000230039 11.5767 0.23469 10.6801 0.685935C9.78344 1.13718 9.00494 1.7922 8.40699 2.59851C7.80904 3.40482 7.40826 4.34 7.23676 5.3291C7.06527 6.3182 7.12784 7.33372 7.41945 8.29429L0 15.7143V20H4.28539L11.7048 12.58C12.589 12.8484 13.5206 12.923 14.4362 12.7988C15.3518 12.6745 16.2298 12.3543 17.0105 11.86C17.7912 11.3657 18.4561 10.7089 18.96 9.93436C19.4639 9.15981 19.7949 8.28572 19.9305 7.37166C20.066 6.45761 20.0029 5.52507 19.7455 4.6376C19.4881 3.75013 19.0424 2.9286 18.4388 2.22897C17.8352 1.52935 17.0878 0.968087 16.2477 0.583436C15.4076 0.198785 14.4944 -0.000214124 13.5704 1.72894e-07ZM13.5704 11.4286C13.0787 11.4283 12.5897 11.3556 12.1191 11.2129L11.2999 10.9643L10.6949 11.5693L8.42294 13.8414L7.43802 12.8571L6.42809 13.8671L7.41302 14.8521L6.28025 15.985L5.29532 15L4.28539 16.01L5.27032 16.995L3.69401 18.5714H1.42846V16.3057L8.42937 9.30429L9.03504 8.69929L8.78649 7.88C8.48121 6.87357 8.50104 5.79649 8.84316 4.80198C9.18528 3.80746 9.83227 2.94616 10.6921 2.34059C11.5519 1.73502 12.5808 1.41601 13.6323 1.42895C14.6839 1.44189 15.7046 1.78611 16.5493 2.41266C17.3939 3.0392 18.0195 3.91616 18.3371 4.91879C18.6546 5.92142 18.648 6.99866 18.318 7.99727C17.9881 8.99589 17.3517 9.86504 16.4993 10.4811C15.647 11.0971 14.6221 11.4287 13.5704 11.4286Z" fill="black" fill-opacity="0.35"/>
    </symbol>

    <symbol viewBox="0 0 20 20" fill="none" id="currencyInput">
        <path d="M10.8091 9.18182C9.19091 8.64546 8.40909 8.30909 8.40909 7.45455C8.40909 6.52727 9.41818 6.19091 10.0545 6.19091C11.2455 6.19091 11.6818 7.09091 11.7818 7.40909L13.2182 6.8C13.0818 6.39091 12.4727 5.05455 10.9091 4.76364V3.63636H9.09091V4.78182C6.83636 5.29091 6.82727 7.38182 6.82727 7.47273C6.82727 9.53636 8.87273 10.1182 9.87273 10.4818C11.3091 10.9909 11.9455 11.4545 11.9455 12.3273C11.9455 13.3545 10.9909 13.7909 10.1455 13.7909C8.49091 13.7909 8.01818 12.0909 7.96364 11.8909L6.45455 12.5C7.02727 14.4909 8.52727 15.0273 9.09091 15.1909V16.3636H10.9091V15.2364C11.2727 15.1545 13.5455 14.7 13.5455 12.3091C13.5455 11.0455 12.9909 9.93636 10.8091 9.18182ZM1.81818 18.1818H0V12.7273H5.45455V14.5455H3.2C4.66364 16.7364 7.16364 18.1818 10 18.1818C12.17 18.1818 14.251 17.3198 15.7854 15.7854C17.3198 14.251 18.1818 12.17 18.1818 10H20C20 15.5273 15.5273 20 10 20C6.61818 20 3.62727 18.3182 1.81818 15.7545V18.1818ZM0 10C0 4.47273 4.47273 0 10 0C13.3818 0 16.3727 1.68182 18.1818 4.24545V1.81818H20V7.27273H14.5455V5.45455H16.8C15.3364 3.26364 12.8364 1.81818 10 1.81818C7.83005 1.81818 5.74897 2.68019 4.21458 4.21458C2.68019 5.74897 1.81818 7.83005 1.81818 10H0Z" fill="black" fill-opacity="0.35"/>
    </symbol>

    <symbol viewBox="0 0 24 14" fill="none" id="burger">
        <path d="M0.571289 0H23.4284V2.28571H0.571289V0ZM6.28557 5.71429H23.4284V8H6.28557V5.71429ZM13.4284 11.4286H23.4284V13.7143H13.4284V11.4286Z" fill="#737373"/>
    </symbol>

    <symbol fill="none" stroke="currentColor" viewBox="0 0 16 16" id="closedEye">
        <path d="M6.59984 2.82663C7.05872 2.71921 7.52855 2.66552 7.99984 2.66663C12.6665 2.66663 15.3332 7.99996 15.3332 7.99996C14.9285 8.75703 14.4459 9.46978 13.8932 10.1266M9.41317 9.41329C9.23007 9.60979 9.00927 9.7674 8.76394 9.87671C8.51861 9.98602 8.25377 10.0448 7.98523 10.0495C7.71669 10.0543 7.44995 10.0049 7.20091 9.90429C6.95188 9.8037 6.72565 9.65398 6.53573 9.46406C6.34582 9.27414 6.1961 9.04792 6.09551 8.79888C5.99492 8.54985 5.94552 8.28311 5.95026 8.01457C5.955 7.74602 6.01378 7.48119 6.12309 7.23586C6.2324 6.99053 6.39001 6.76972 6.5865 6.58663M0.666504 0.666626L15.3332 15.3333M11.9598 11.96C10.8202 12.8286 9.43258 13.3099 7.99984 13.3333C3.33317 13.3333 0.666504 7.99996 0.666504 7.99996C1.49576 6.45456 2.64593 5.10436 4.03984 4.03996L11.9598 11.96Z" stroke-width="1.33" stroke-linecap="round" stroke-linejoin="round"/>
    </symbol>

    <symbol fill="none" stroke="currentColor" viewBox="0 0 16 16" id="openedEye">
        <path d="M0.666504 7.99996C0.666504 7.99996 3.33317 2.66663 7.99984 2.66663C12.6665 2.66663 15.3332 7.99996 15.3332 7.99996C15.3332 7.99996 12.6665 13.3333 7.99984 13.3333C3.33317 13.3333 0.666504 7.99996 0.666504 7.99996Z" stroke-width="1.33" stroke-linecap="round" stroke-linejoin="round"/>
        <path d="M7.99984 9.99996C9.10441 9.99996 9.99984 9.10453 9.99984 7.99996C9.99984 6.89539 9.10441 5.99996 7.99984 5.99996C6.89527 5.99996 5.99984 6.89539 5.99984 7.99996C5.99984 9.10453 6.89527 9.99996 7.99984 9.99996Z" stroke-width="1.33" stroke-linecap="round" stroke-linejoin="round"/>
    </symbol>
    
    <symbol viewBox="0 0 52 52" fill="none" id="slider_arrow">
        <path fill-rule="evenodd" clip-rule="evenodd" d="M48.75 6.5C48.75 5.63805 48.4076 4.8114 47.7981 4.2019C47.1886 3.59241 46.362 3.25 45.5 3.25H6.5C5.63805 3.25 4.8114 3.59241 4.2019 4.2019C3.59241 4.8114 3.25 5.63805 3.25 6.5V45.5C3.25 46.362 3.59241 47.1886 4.2019 47.7981C4.8114 48.4076 5.63805 48.75 6.5 48.75H45.5C46.362 48.75 47.1886 48.4076 47.7981 47.7981C48.4076 47.1886 48.75 46.362 48.75 45.5V6.5ZM0 6.5C0 4.77609 0.68482 3.12279 1.90381 1.90381C3.12279 0.68482 4.77609 0 6.5 0L45.5 0C47.2239 0 48.8772 0.68482 50.0962 1.90381C51.3152 3.12279 52 4.77609 52 6.5V45.5C52 47.2239 51.3152 48.8772 50.0962 50.0962C48.8772 51.3152 47.2239 52 45.5 52H6.5C4.77609 52 3.12279 51.3152 1.90381 50.0962C0.68482 48.8772 0 47.2239 0 45.5V6.5ZM14.625 24.375C14.194 24.375 13.7807 24.5462 13.476 24.851C13.1712 25.1557 13 25.569 13 26C13 26.431 13.1712 26.8443 13.476 27.149C13.7807 27.4538 14.194 27.625 14.625 27.625H33.4523L26.4745 34.5995C26.3234 34.7506 26.2036 34.93 26.1218 35.1274C26.04 35.3248 25.9979 35.5363 25.9979 35.75C25.9979 35.9637 26.04 36.1752 26.1218 36.3726C26.2036 36.57 26.3234 36.7494 26.4745 36.9005C26.6256 37.0516 26.805 37.1714 27.0024 37.2532C27.1998 37.335 27.4113 37.3771 27.625 37.3771C27.8387 37.3771 28.0502 37.335 28.2476 37.2532C28.445 37.1714 28.6244 37.0516 28.7755 36.9005L38.5255 27.1505C38.6768 26.9996 38.7969 26.8202 38.8788 26.6228C38.9607 26.4254 39.0029 26.2137 39.0029 26C39.0029 25.7863 38.9607 25.5746 38.8788 25.3772C38.7969 25.1798 38.6768 25.0004 38.5255 24.8495L28.7755 15.0995C28.6244 14.9484 28.445 14.8286 28.2476 14.7468C28.0502 14.665 27.8387 14.6229 27.625 14.6229C27.4113 14.6229 27.1998 14.665 27.0024 14.7468C26.805 14.8286 26.6256 14.9484 26.4745 15.0995C26.3234 15.2506 26.2036 15.4299 26.1218 15.6274C26.04 15.8248 25.9979 16.0363 25.9979 16.25C25.9979 16.4637 26.04 16.6752 26.1218 16.8726C26.2036 17.07 26.3234 17.2494 26.4745 17.4005L33.4523 24.375H14.625Z" fill="#BC7C1B"/>
    </symbol>


    <symbol viewBox="0 0 41 47" fill="none" id="person">
        <path d="M1 47V43.1667C1 38.0834 3.01934 33.2082 6.61379 29.6138C10.2082 26.0193 15.0834 24 20.1667 24C25.25 24 30.1251 26.0193 33.7195 29.6138C37.314 33.2082 39.3333 38.0834 39.3333 43.1667V47" stroke="#BC7C1B" stroke-width="2"/>
        <path d="M20.166 24C23.216 24 26.1411 22.7884 28.2977 20.6317C30.4544 18.4751 31.666 15.55 31.666 12.5C31.666 9.45001 30.4544 6.52494 28.2977 4.36827C26.1411 2.2116 23.216 1 20.166 1C17.116 1 14.191 2.2116 12.0343 4.36827C9.87762 6.52494 8.66602 9.45001 8.66602 12.5C8.66602 15.55 9.87762 18.4751 12.0343 20.6317C14.191 22.7884 17.116 24 20.166 24V24Z" stroke="#BC7C1B" stroke-width="2" stroke-linecap="round" stroke-linejoin="round"/>
    </symbol>


    <symbol viewBox="0 0 32 31" fill="none" id="bnb">
        <rect y="15.5049" width="6.09725" height="6.09725" transform="rotate(-45 0 15.5049)" fill="#F0B90B"/>
        <rect x="5.30273" y="9.88086" width="13.9744" height="6.09725" transform="rotate(-45 5.30273 9.88086)" fill="#F0B90B"/>
        <rect x="5.30273" y="20.7539" width="21.522" height="6.09725" transform="rotate(-45 5.30273 20.7539)" fill="#F0B90B"/>
        <rect x="11.4883" y="26.0908" width="21.522" height="6.09725" transform="rotate(-45 11.4883 26.0908)" fill="#F0B90B"/>
    </symbol>


    <svg viewBox="0 0 26 28" fill="none" id="close">
        <path d="M15.0807 13.9981L25.6275 1.42624C25.8043 1.21731 25.6557 0.899902 25.3824 0.899902H22.1762C21.9874 0.899902 21.8066 0.984277 21.682 1.12892L12.9833 11.499L4.28468 1.12892C4.16414 0.984277 3.98334 0.899902 3.79048 0.899902H0.584232C0.311018 0.899902 0.162357 1.21731 0.339143 1.42624L10.886 13.9981L0.339143 26.57C0.299541 26.6166 0.274135 26.6735 0.26594 26.7341C0.257745 26.7947 0.267106 26.8563 0.292911 26.9118C0.318716 26.9672 0.359882 27.014 0.411521 27.0467C0.46316 27.0795 0.523102 27.0967 0.584232 27.0963H3.79048C3.97932 27.0963 4.16013 27.012 4.28468 26.8673L12.9833 16.4972L21.682 26.8673C21.8025 27.012 21.9833 27.0963 22.1762 27.0963H25.3824C25.6557 27.0963 25.8043 26.7789 25.6275 26.57L15.0807 13.9981Z" fill="#737373"/>
    </svg>


    <svg viewBox="0 0 97 20" fill="none" id="textLogo">
        <path d="M10.152 19.288C8.824 19.288 7.592 19.072 6.456 18.64C5.336 18.208 4.36 17.6 3.528 16.816C2.712 16.032 2.072 15.112 1.608 14.056C1.16 13 0.936 11.848 0.936 10.6C0.936 9.352 1.16 8.2 1.608 7.144C2.072 6.088 2.72 5.168 3.552 4.384C4.384 3.6 5.36 2.992 6.48 2.56C7.6 2.128 8.816 1.912 10.128 1.912C11.456 1.912 12.672 2.128 13.776 2.56C14.896 2.992 15.864 3.6 16.68 4.384C17.512 5.168 18.16 6.088 18.624 7.144C19.088 8.184 19.32 9.336 19.32 10.6C19.32 11.848 19.088 13.008 18.624 14.08C18.16 15.136 17.512 16.056 16.68 16.84C15.864 17.608 14.896 18.208 13.776 18.64C12.672 19.072 11.464 19.288 10.152 19.288ZM10.128 15.976C10.88 15.976 11.568 15.848 12.192 15.592C12.832 15.336 13.392 14.968 13.872 14.488C14.352 14.008 14.72 13.44 14.976 12.784C15.248 12.128 15.384 11.4 15.384 10.6C15.384 9.8 15.248 9.072 14.976 8.416C14.72 7.76 14.352 7.192 13.872 6.712C13.408 6.232 12.856 5.864 12.216 5.608C11.576 5.352 10.88 5.224 10.128 5.224C9.376 5.224 8.68 5.352 8.04 5.608C7.416 5.864 6.864 6.232 6.384 6.712C5.904 7.192 5.528 7.76 5.256 8.416C5 9.072 4.872 9.8 4.872 10.6C4.872 11.384 5 12.112 5.256 12.784C5.528 13.44 5.896 14.008 6.36 14.488C6.84 14.968 7.4 15.336 8.04 15.592C8.68 15.848 9.376 15.976 10.128 15.976ZM29.998 19V16.48L29.758 15.928V11.416C29.758 10.616 29.51 9.992 29.014 9.544C28.534 9.096 27.79 8.872 26.782 8.872C26.094 8.872 25.414 8.984 24.742 9.208C24.086 9.416 23.526 9.704 23.062 10.072L21.718 7.456C22.422 6.96 23.27 6.576 24.262 6.304C25.254 6.032 26.262 5.896 27.286 5.896C29.254 5.896 30.782 6.36 31.87 7.288C32.958 8.216 33.502 9.664 33.502 11.632V19H29.998ZM26.062 19.192C25.054 19.192 24.19 19.024 23.47 18.688C22.75 18.336 22.198 17.864 21.814 17.272C21.43 16.68 21.238 16.016 21.238 15.28C21.238 14.512 21.422 13.84 21.79 13.264C22.174 12.688 22.774 12.24 23.59 11.92C24.406 11.584 25.47 11.416 26.782 11.416H30.214V13.6H27.19C26.31 13.6 25.702 13.744 25.366 14.032C25.046 14.32 24.886 14.68 24.886 15.112C24.886 15.592 25.07 15.976 25.438 16.264C25.822 16.536 26.342 16.672 26.998 16.672C27.622 16.672 28.182 16.528 28.678 16.24C29.174 15.936 29.534 15.496 29.758 14.92L30.334 16.648C30.062 17.48 29.566 18.112 28.846 18.544C28.126 18.976 27.198 19.192 26.062 19.192ZM40.0865 16.36L40.1825 11.8L46.2065 6.088H50.6705L44.8865 11.968L42.9425 13.552L40.0865 16.36ZM36.9905 19V1.192H40.7345V19H36.9905ZM46.6145 19L42.2465 13.576L44.5985 10.672L51.1505 19H46.6145ZM52.9342 19V1.192H56.6782V19H52.9342ZM60.253 19V6.088H63.997V19H60.253ZM62.125 4.288C61.437 4.288 60.877 4.088 60.445 3.688C60.013 3.288 59.797 2.792 59.797 2.2C59.797 1.608 60.013 1.112 60.445 0.711999C60.877 0.311999 61.437 0.111999 62.125 0.111999C62.813 0.111999 63.373 0.303999 63.805 0.688C64.237 1.056 64.453 1.536 64.453 2.128C64.453 2.752 64.237 3.272 63.805 3.688C63.389 4.088 62.829 4.288 62.125 4.288ZM73.7158 19.192C72.3398 19.192 71.1158 18.904 70.0438 18.328C68.9878 17.752 68.1478 16.968 67.5238 15.976C66.9158 14.968 66.6118 13.824 66.6118 12.544C66.6118 11.248 66.9158 10.104 67.5238 9.112C68.1478 8.104 68.9878 7.32 70.0438 6.76C71.1158 6.184 72.3398 5.896 73.7158 5.896C75.0758 5.896 76.2918 6.184 77.3638 6.76C78.4358 7.32 79.2758 8.096 79.8838 9.088C80.4918 10.08 80.7958 11.232 80.7958 12.544C80.7958 13.824 80.4918 14.968 79.8838 15.976C79.2758 16.968 78.4358 17.752 77.3638 18.328C76.2918 18.904 75.0758 19.192 73.7158 19.192ZM73.7158 16.12C74.3398 16.12 74.8998 15.976 75.3958 15.688C75.8918 15.4 76.2838 14.992 76.5718 14.464C76.8598 13.92 77.0038 13.28 77.0038 12.544C77.0038 11.792 76.8598 11.152 76.5718 10.624C76.2838 10.096 75.8918 9.688 75.3958 9.4C74.8998 9.112 74.3398 8.968 73.7158 8.968C73.0918 8.968 72.5318 9.112 72.0358 9.4C71.5398 9.688 71.1398 10.096 70.8358 10.624C70.5478 11.152 70.4038 11.792 70.4038 12.544C70.4038 13.28 70.5478 13.92 70.8358 14.464C71.1398 14.992 71.5398 15.4 72.0358 15.688C72.5318 15.976 73.0918 16.12 73.7158 16.12ZM91.2463 5.896C92.2703 5.896 93.1823 6.104 93.9823 6.52C94.7983 6.92 95.4383 7.544 95.9023 8.392C96.3663 9.224 96.5983 10.296 96.5983 11.608V19H92.8543V12.184C92.8543 11.144 92.6223 10.376 92.1583 9.88C91.7103 9.384 91.0703 9.136 90.2383 9.136C89.6463 9.136 89.1103 9.264 88.6303 9.52C88.1663 9.76 87.7983 10.136 87.5263 10.648C87.2703 11.16 87.1423 11.816 87.1423 12.616V19H83.3983V6.088H86.9743V9.664L86.3023 8.584C86.7663 7.72 87.4303 7.056 88.2943 6.592C89.1583 6.128 90.1423 5.896 91.2463 5.896Z" fill="#252B42"/>
    </svg>

    <symbol viewBox="0 0 62 57" fill="none" id="monitor">
        <path d="M3.1 43.7679H28.9333V52.9286H18.6V57H43.4V52.9286H33.0667V43.7679H58.9C59.7219 43.7669 60.5098 43.4449 61.091 42.8724C61.6721 42.3 61.999 41.5239 62 40.7143V3.05357C61.999 2.244 61.6721 1.46786 61.091 0.895412C60.5098 0.32296 59.7219 0.000942847 58.9 0H3.1C2.27812 0.000942847 1.49018 0.32296 0.909026 0.895412C0.327871 1.46786 0.000957183 2.244 0 3.05357V40.7143C0.000957183 41.5239 0.327871 42.3 0.909026 42.8724C1.49018 43.4449 2.27812 43.7669 3.1 43.7679ZM4.13333 4.07143H57.8667V39.6964H4.13333V4.07143Z" fill="#BC7C1B"/>
    </symbol>

    <symbol viewBox="0 0 57 57" fill="none" id="plot">
        <path d="M4.07143 0H0V52.9286C0 54.0084 0.428953 55.044 1.19249 55.8075C1.95603 56.571 2.99162 57 4.07143 57H57V52.9286H4.07143V0Z" fill="#BC7C1B"/>
        <path d="M56.9997 14.25H42.7497V18.3214H50.0579L34.6069 33.7725L25.8736 25.0189C25.6844 24.8281 25.4593 24.6767 25.2112 24.5733C24.9631 24.47 24.697 24.4168 24.4283 24.4168C24.1596 24.4168 23.8935 24.47 23.6454 24.5733C23.3973 24.6767 23.1722 24.8281 22.9829 25.0189L8.14258 39.8796L11.0129 42.75L24.4283 29.3346L33.1615 38.0882C33.3508 38.279 33.5759 38.4305 33.824 38.5338C34.072 38.6372 34.3381 38.6904 34.6069 38.6904C34.8756 38.6904 35.1417 38.6372 35.3898 38.5338C35.6378 38.4305 35.863 38.279 36.0522 38.0882L52.9283 21.1918V28.5H56.9997V14.25Z" fill="#BC7C1B"/>
    </symbol>

    <symbol viewBox="0 0 63 57" fill="none" id="operator">
        <path d="M28.35 57V50.6667H53.55V28.1833C53.55 25.1222 52.9725 22.2458 51.8175 19.5542C50.6625 16.8625 49.0875 14.5139 47.0925 12.5083C45.0975 10.5028 42.7613 8.91944 40.0838 7.75833C37.4063 6.59722 34.545 6.01667 31.5 6.01667C28.455 6.01667 25.5938 6.59722 22.9163 7.75833C20.2387 8.91944 17.9025 10.5028 15.9075 12.5083C13.9125 14.5139 12.3375 16.8625 11.1825 19.5542C10.0275 22.2458 9.45 25.1222 9.45 28.1833V47.5H6.3C4.5675 47.5 3.0849 46.8804 1.8522 45.6412C0.6174 44.3998 0 42.9083 0 41.1667V34.8333C0 33.6194 0.28875 32.5502 0.86625 31.6255C1.44375 30.7029 2.205 29.9514 3.15 29.3708L3.38625 25.175C3.85875 21.3222 4.94865 17.8389 6.65595 14.725C8.36115 11.6111 10.4874 8.97222 13.0347 6.80833C15.5799 4.64444 18.4412 2.96822 21.6185 1.77967C24.7936 0.593222 28.0875 0 31.5 0C34.965 0 38.2862 0.593222 41.4635 1.77967C44.6387 2.96822 47.4863 4.65711 50.0063 6.84633C52.5263 9.03767 54.6399 11.6766 56.3472 14.763C58.0524 17.8516 59.1413 21.2958 59.6138 25.0958L59.85 29.2125C60.795 29.6875 61.5563 30.3863 62.1338 31.3088C62.7113 32.2335 63 33.25 63 34.3583V41.6417C63 42.8028 62.7113 43.8319 62.1338 44.7292C61.5563 45.6264 60.795 46.3125 59.85 46.7875V50.6667C59.85 52.4083 59.2337 53.8998 58.001 55.1412C56.7662 56.3804 55.2825 57 53.55 57H28.35ZM22.05 34.8333C21.1575 34.8333 20.4099 34.5293 19.8072 33.9213C19.2024 33.3154 18.9 32.5639 18.9 31.6667C18.9 30.7694 19.2024 30.0168 19.8072 29.4088C20.4099 28.8029 21.1575 28.5 22.05 28.5C22.9425 28.5 23.6912 28.8029 24.296 29.4088C24.8987 30.0168 25.2 30.7694 25.2 31.6667C25.2 32.5639 24.8987 33.3154 24.296 33.9213C23.6912 34.5293 22.9425 34.8333 22.05 34.8333ZM40.95 34.8333C40.0575 34.8333 39.3099 34.5293 38.7072 33.9213C38.1024 33.3154 37.8 32.5639 37.8 31.6667C37.8 30.7694 38.1024 30.0168 38.7072 29.4088C39.3099 28.8029 40.0575 28.5 40.95 28.5C41.8425 28.5 42.5912 28.8029 43.196 29.4088C43.7987 30.0168 44.1 30.7694 44.1 31.6667C44.1 32.5639 43.7987 33.3154 43.196 33.9213C42.5912 34.5293 41.8425 34.8333 40.95 34.8333ZM12.6788 29.925C12.4688 26.8111 12.9024 23.9875 13.9797 21.4542C15.0549 18.9208 16.4976 16.7696 18.3078 15.0005C20.1201 13.2335 22.2075 11.875 24.57 10.925C26.9325 9.975 29.295 9.5 31.6575 9.5C36.435 9.5 40.5699 11.0179 44.0622 14.0537C47.5524 17.0873 49.665 20.8736 50.4 25.4125C45.465 25.3597 41.0025 24.0266 37.0125 21.413C33.0225 18.8016 30.0038 15.4111 27.9563 11.2417C27.1163 15.5167 25.3449 19.3029 22.6422 22.6005C19.9374 25.9002 16.6163 28.3417 12.6788 29.925Z" fill="#BC7C1B"/>
    </symbol>

    <symbol viewBox="0 0 19 19" fill="none" id="check">
        <path d="M14.2222 1H4.77778C2.69137 1 1 2.69137 1 4.77778V14.2222C1 16.3086 2.69137 18 4.77778 18H14.2222C16.3086 18 18 16.3086 18 14.2222V4.77778C18 2.69137 16.3086 1 14.2222 1Z" stroke="#BC7C1B" stroke-width="2" stroke-linecap="round" stroke-linejoin="round"/>
        <path d="M6.66602 9.50022L8.79102 11.3891L12.3327 7.61133" stroke="#BC7C1B" stroke-width="2" stroke-linecap="round" stroke-linejoin="round"/>
    </symbol>


    <symbol viewBox="0 0 48 45" fill="none" id="crowd">
        <g clip-path="url(#clip0_1410_100)">
        <path d="M23.8406 20.8025C28.1448 20.8025 31.4925 17.3071 31.4925 13.0173C31.4925 8.72759 27.9854 5.39111 23.6812 5.39111C19.377 5.39111 16.0293 8.88647 16.0293 13.0173C16.0293 17.3071 19.5364 20.8025 23.8406 20.8025ZM23.6812 8.56871C23.8406 8.56871 23.8406 8.56871 23.6812 8.56871C26.2318 8.56871 28.3042 10.6342 28.3042 13.1762C28.3042 15.7183 26.2318 17.6249 23.6812 17.6249C21.1306 17.6249 19.2176 15.5594 19.2176 13.1762C19.2176 10.6342 21.29 8.56871 23.6812 8.56871Z" fill="currentColor"/>
        <path d="M47.4335 19.8487C44.4046 17.1477 40.4193 15.7178 36.2745 15.8767H34.9992C34.6804 17.1477 34.2021 18.2599 33.5645 19.2132C34.5209 19.0543 35.318 19.0543 36.2745 19.0543C39.3034 18.8954 42.3323 19.8487 44.7235 21.5964V33.0357H47.9118V20.3253L47.4335 19.8487Z" fill="#0D5C63"/>
        <path d="M32.6088 5.70826C33.4058 3.8017 35.6376 2.84842 37.71 3.64282C39.623 4.43722 40.5795 6.66154 39.7824 8.72697C39.1448 10.1569 37.71 11.1102 36.2753 11.1102C35.9565 11.1102 35.4782 11.1102 35.1594 10.9513C35.3188 11.7457 35.3188 12.5401 35.3188 13.1756V14.1289C35.6376 14.1289 35.9565 14.2878 36.2753 14.2878C40.2607 14.2878 43.449 11.1102 43.449 7.29706C43.449 3.32506 40.2607 0.147461 36.4347 0.147461C33.8841 0.147461 31.6523 1.4185 30.377 3.64282C31.174 4.11946 31.9711 4.75498 32.6088 5.70826Z" fill="currentColor"/>
        <path d="M14.4352 19.3724C13.7975 18.4191 13.3193 17.3069 13.0005 16.0359H11.7252C7.58037 15.877 3.59501 17.3069 0.566134 19.849L0.0878906 20.3257V33.0361H3.27618V21.5967C5.82681 19.849 8.69628 18.8957 11.7252 19.0546C12.6816 19.0546 13.6381 19.2135 14.4352 19.3724Z" fill="currentColor"/>
        <path d="M11.7246 14.1295C12.0435 14.1295 12.3623 14.1295 12.6811 13.9706V13.0174C12.6811 12.223 12.6811 11.4286 12.8405 10.793C12.5217 10.9519 12.0435 10.9519 11.7246 10.9519C9.65225 10.9519 7.89869 9.20424 7.89869 7.1388C7.89869 5.07336 9.65225 3.32568 11.7246 3.32568C13.3188 3.32568 14.7535 4.27896 15.3912 5.70888C16.0288 4.91448 16.9853 4.12008 17.7824 3.48456C15.71 0.148085 11.4058 -0.964074 8.0581 1.10136C4.7104 3.1668 3.59449 7.45656 5.66688 10.793C6.9422 12.8585 9.174 14.1295 11.7246 14.1295Z" fill="currentColor"/>
        <path d="M36.9128 29.3817L36.594 28.9051C33.4057 25.4097 28.9421 23.3443 24.1596 23.5032C19.3772 23.3443 14.7542 25.4097 11.5659 28.9051L11.2471 29.3817V41.4566C11.2471 42.8865 12.363 44.1576 13.9571 44.1576H34.3622C35.7969 44.1576 37.0722 42.8865 37.0722 41.4566V29.3817H36.9128ZM33.7245 40.98H14.4354V30.4939C16.986 27.9518 20.4931 26.6808 24.1596 26.6808C27.6668 26.5219 31.1739 27.9518 33.7245 30.4939V40.98Z" fill="currentColor"/>
        </g>
        <defs>
        <clipPath id="clip0_1410_100">
        <rect width="48" height="44.2105" fill="white"/>
        </clipPath>
        </defs>
    </symbol>

    <symbol viewBox="0 0 48 48" fill="none" id="shop">
        <g clip-path="url(#clip0_1410_114)">
        <path opacity="0.15" d="M43.6503 13.75H4.35031C4.33231 13.75 4.32031 13.7619 4.32031 13.7796V19.1849C4.32031 22.7291 7.26031 25.6037 10.8783 25.6037C13.3203 25.6037 15.4503 24.2998 16.5843 22.3617C16.7583 22.0594 17.0883 21.8698 17.4423 21.8698C17.7963 21.8698 18.1203 22.0594 18.3003 22.3617C19.4283 24.2998 21.5583 25.6037 24.0003 25.6037C26.4483 25.6037 28.5843 24.2938 29.7063 22.3498C29.8803 22.0535 30.1983 21.8698 30.5403 21.8698H30.5763C30.9243 21.8698 31.2363 22.0535 31.4103 22.3498C32.5383 24.2938 34.6743 25.6037 37.1223 25.6037C40.7403 25.6037 43.6803 22.7291 43.6803 19.1849V13.7796C43.6803 13.7619 43.6683 13.75 43.6503 13.75Z" fill="currentColor"/>
        <path d="M46.2 9.48885V1.89659C46.2 0.847537 45.342 0 44.28 0H3.72003C2.65804 0 1.80004 0.847537 1.80004 1.89659V9.48885C0.798037 9.54812 3.71756e-05 10.372 3.71756e-05 11.3795V19.1851C-0.00380525 20.6197 0.290253 22.0398 0.864037 23.3576C1.12204 23.9622 1.44004 24.5311 1.80004 25.0705V45.518C1.80004 46.5612 2.65804 47.4146 3.72003 47.4146H44.28C45.342 47.4146 46.2 46.5671 46.2 45.518V25.0705C46.5657 24.5298 46.879 23.9563 47.136 23.3576C47.706 22.036 48 20.6313 48 19.1851V11.3795C48 10.372 47.202 9.54812 46.2 9.48885ZM6.12003 4.26732H41.88V9.48293H6.12003V4.26732ZM27.84 43.1532H20.16V36.9834H27.84V43.1532ZM41.904 43.1532H31.68V35.0868C31.68 34.0378 30.822 33.1902 29.76 33.1902H18.24C17.178 33.1902 16.32 34.0378 16.32 35.0868V43.1532H6.12003V28.7985C6.29403 28.8814 6.47403 28.9644 6.66003 29.0355C7.99803 29.5927 9.42003 29.8712 10.884 29.8712C12.348 29.8712 13.764 29.5927 15.108 29.0355C15.936 28.6918 16.716 28.2532 17.43 27.7257C17.442 27.7198 17.454 27.7198 17.466 27.7257C18.1822 28.2554 18.9622 28.6954 19.788 29.0355C21.126 29.5927 22.548 29.8712 24.012 29.8712C25.476 29.8712 26.892 29.5927 28.236 29.0355C29.064 28.6918 29.844 28.2532 30.558 27.7257C30.57 27.7198 30.582 27.7198 30.594 27.7257C31.3102 28.2554 32.0902 28.6954 32.916 29.0355C34.254 29.5927 35.676 29.8712 37.14 29.8712C38.604 29.8712 40.02 29.5927 41.364 29.0355C41.544 28.9585 41.724 28.8814 41.904 28.7985V43.1532ZM43.68 19.1851C43.68 22.7294 40.74 25.6039 37.122 25.6039C34.674 25.6039 32.538 24.2941 31.41 22.3501C31.236 22.0537 30.924 21.87 30.576 21.87H30.54C30.198 21.87 29.88 22.0537 29.706 22.3501C29.1304 23.3417 28.2992 24.1652 27.297 24.7367C26.2948 25.3082 25.1572 25.6074 24 25.6039C21.558 25.6039 19.428 24.3 18.3 22.3619C18.12 22.0597 17.796 21.87 17.442 21.87C17.088 21.87 16.758 22.0597 16.584 22.3619C16.005 23.3498 15.1728 24.1695 14.1711 24.7387C13.1694 25.3078 12.0336 25.6062 10.878 25.6039C7.26003 25.6039 4.32003 22.7294 4.32003 19.1851V13.7799C4.32003 13.7621 4.33203 13.7502 4.35003 13.7502H43.65C43.668 13.7502 43.68 13.7621 43.68 13.7799V19.1851Z" fill="currentColor"/>
        </g>
        <defs>
        <clipPath id="clip0_1410_114">
        <rect width="48" height="47.4146" fill="white"/>
        </clipPath>
        </defs>
    </symbol>

    <symbol viewBox="0 0 48 38" fill="none" id="deal">
        <g clip-path="url(#clip0_1410_124)">
        <path d="M29.1416 8.62402H41.1395V12.0693H29.1416V8.62402Z" fill="currentColor"/>
        <path d="M29.1416 17.2373H41.1395V20.6826H29.1416V17.2373Z" fill="currentColor"/>
        <path d="M29.1416 25.8506H41.1395V29.2959H29.1416V25.8506Z" fill="currentColor"/>
        <path d="M44.5674 0.0112305H3.43187C2.52299 0.0121426 1.65161 0.375424 1.00893 1.02135C0.366264 1.66727 0.00481376 2.54307 0.00390625 3.45655V34.4644C0.00481376 35.3779 0.366264 36.2537 1.00893 36.8996C1.65161 37.5455 2.52299 37.9088 3.43187 37.9097H44.5674C45.4761 37.9084 46.3472 37.5449 46.9898 36.8991C47.6324 36.2533 47.994 35.3777 47.9953 34.4644V3.45655C47.9944 2.54307 47.633 1.66727 46.9903 1.02135C46.3477 0.375424 45.4763 0.0121426 44.5674 0.0112305ZM3.43187 3.45655H22.2856V34.4644H3.43187V3.45655ZM25.7136 34.4644V3.45655H44.5674L44.5708 34.4644H25.7136Z" fill="currentColor"/>
        </g>
        <defs>
        <clipPath id="clip0_1410_124">
        <rect width="48" height="37.92" fill="white"/>
        </clipPath>
        </defs>
    </symbol>

    <!-- <symbol viewBox="0 0 45 2" fill="none" id="horizontalDivider">
        <path d="M0 1H45" stroke="white"/>
    </symbol> -->

    <symbol viewBox="0 0 25 24" fill="none" id="facebook">
        <path d="M23.54 0H1.46C0.929 0 0.5 0.429 0.5 0.96V23.04C0.5 23.571 0.929 24 1.46 24H23.54C24.071 24 24.5 23.571 24.5 23.04V0.96C24.5 0.429 24.071 0 23.54 0ZM20.768 7.005H18.851C17.348 7.005 17.057 7.719 17.057 8.769V11.082H20.645L20.177 14.703H17.057V24H13.316V14.706H10.187V11.082H13.316V8.412C13.316 5.313 15.209 3.624 17.975 3.624C19.301 3.624 20.438 3.723 20.771 3.768V7.005H20.768Z" fill="#335BF5"/>
    </symbol>

    <symbol viewBox="0 0 25 24" fill="none" id="instagram">
        <path d="M12.5016 5.84744C9.09659 5.84744 6.34859 8.59544 6.34859 12.0004C6.34859 15.4054 9.09659 18.1534 12.5016 18.1534C15.9066 18.1534 18.6546 15.4054 18.6546 12.0004C18.6546 8.59544 15.9066 5.84744 12.5016 5.84744ZM12.5016 15.9994C10.2996 15.9994 8.50259 14.2024 8.50259 12.0004C8.50259 9.79844 10.2996 8.00144 12.5016 8.00144C14.7036 8.00144 16.5006 9.79844 16.5006 12.0004C16.5006 14.2024 14.7036 15.9994 12.5016 15.9994ZM18.9066 4.16144C18.1116 4.16144 17.4696 4.80344 17.4696 5.59844C17.4696 6.39344 18.1116 7.03544 18.9066 7.03544C19.7016 7.03544 20.3436 6.39644 20.3436 5.59844C20.3438 5.40966 20.3068 5.22269 20.2347 5.04824C20.1625 4.87379 20.0567 4.71528 19.9232 4.5818C19.7897 4.44831 19.6312 4.34247 19.4568 4.27034C19.2823 4.19821 19.0954 4.1612 18.9066 4.16144ZM24.4956 12.0004C24.4956 10.3444 24.5106 8.70344 24.4176 7.05044C24.3246 5.13044 23.8866 3.42644 22.4826 2.02244C21.0756 0.615437 19.3746 0.180437 17.4546 0.0874372C15.7986 -0.00556279 14.1576 0.00943725 12.5046 0.00943725C10.8486 0.00943725 9.20759 -0.00556279 7.55459 0.0874372C5.63459 0.180437 3.93059 0.618437 2.52659 2.02244C1.11959 3.42944 0.684588 5.13044 0.591588 7.05044C0.498588 8.70644 0.513588 10.3474 0.513588 12.0004C0.513588 13.6534 0.498588 15.2974 0.591588 16.9504C0.684588 18.8704 1.12259 20.5744 2.52659 21.9784C3.93359 23.3854 5.63459 23.8204 7.55459 23.9134C9.21059 24.0064 10.8516 23.9914 12.5046 23.9914C14.1606 23.9914 15.8016 24.0064 17.4546 23.9134C19.3746 23.8204 21.0786 23.3824 22.4826 21.9784C23.8896 20.5714 24.3246 18.8704 24.4176 16.9504C24.5136 15.2974 24.4956 13.6564 24.4956 12.0004ZM21.8556 19.0744C21.6366 19.6204 21.3726 20.0284 20.9496 20.4484C20.5266 20.8714 20.1216 21.1354 19.5756 21.3544C17.9976 21.9814 14.2506 21.8404 12.5016 21.8404C10.7526 21.8404 7.00259 21.9814 5.42459 21.3574C4.87859 21.1384 4.47059 20.8744 4.05059 20.4514C3.62759 20.0284 3.36359 19.6234 3.14459 19.0774C2.52059 17.4964 2.66159 13.7494 2.66159 12.0004C2.66159 10.2514 2.52059 6.50144 3.14459 4.92344C3.36359 4.37744 3.62759 3.96944 4.05059 3.54944C4.47359 3.12944 4.87859 2.86244 5.42459 2.64344C7.00259 2.01944 10.7526 2.16044 12.5016 2.16044C14.2506 2.16044 18.0006 2.01944 19.5786 2.64344C20.1246 2.86244 20.5326 3.12644 20.9526 3.54944C21.3756 3.97244 21.6396 4.37744 21.8586 4.92344C22.4826 6.50144 22.3416 10.2514 22.3416 12.0004C22.3416 13.7494 22.4826 17.4964 21.8556 19.0744Z" fill="#E61F5A"/>
    </symbol>


    <symbol viewBox="0 0 25 20" fill="none" id="twitter">
        <path d="M24.5004 2.46548C23.6188 2.85141 22.6594 3.12917 21.6711 3.23735C22.6971 2.61879 23.4655 1.64156 23.832 0.489007C22.8692 1.07022 21.8145 1.47778 20.7146 1.6936C20.2549 1.19488 19.6989 0.797581 19.0813 0.526453C18.4636 0.255325 17.7976 0.116179 17.1247 0.117688C14.402 0.117688 12.2123 2.3573 12.2123 5.10564C12.2123 5.49158 12.2584 5.87752 12.3333 6.24884C8.2565 6.03248 4.62048 4.05601 2.2032 1.0299C1.76274 1.79335 1.53193 2.66261 1.53477 3.54727C1.53477 5.27814 2.402 6.80435 3.72444 7.70195C2.94511 7.6708 2.18402 7.45342 1.50308 7.06749V7.12889C1.50308 9.5527 3.19143 11.5613 5.44161 12.0233C5.01912 12.1347 4.58449 12.1916 4.14797 12.1929C3.82817 12.1929 3.52565 12.1607 3.22024 12.1168C3.84257 14.0933 5.65482 15.5289 7.8128 15.5757C6.12444 16.9177 4.00968 17.7071 1.7134 17.7071C1.3014 17.7071 0.921085 17.6925 0.526367 17.6457C2.70452 19.0637 5.28891 19.8824 8.0721 19.8824C17.1074 19.8824 22.0514 12.2864 22.0514 5.69332C22.0514 5.47696 22.0514 5.2606 22.037 5.04424C22.9936 4.33377 23.832 3.45371 24.5004 2.46548Z" fill="#21A6DF"/>
    </symbol>

    <symbol viewBox="0 0 25 18" fill="none" id="youtube">
        <path d="M23.9699 2.93179C23.8335 2.39882 23.5663 1.91289 23.1951 1.52261C22.824 1.13234 22.3619 0.851413 21.855 0.707956C19.9884 0.176758 12.4879 0.176758 12.4879 0.176758C12.4879 0.176758 4.98729 0.176758 3.12071 0.707956C2.61385 0.851413 2.15172 1.13234 1.78057 1.52261C1.40941 1.91289 1.14225 2.39882 1.00582 2.93179C0.657288 4.93347 0.488155 6.96513 0.500644 9.00005C0.488155 11.035 0.657288 13.0666 1.00582 15.0683C1.14225 15.6013 1.40941 16.0872 1.78057 16.4775C2.15172 16.8678 2.61385 17.1487 3.12071 17.2921C4.98729 17.8233 12.4879 17.8233 12.4879 17.8233C12.4879 17.8233 19.9884 17.8233 21.855 17.2921C22.3619 17.1487 22.824 16.8678 23.1951 16.4775C23.5663 16.0872 23.8335 15.6013 23.9699 15.0683C24.3184 13.0666 24.4876 11.035 24.4751 9.00005C24.4876 6.96513 24.3184 4.93347 23.9699 2.93179ZM10.0904 12.7815V5.21864L16.3152 9.00005L10.0904 12.7815Z" fill="#E42F08"/>
    </symbol>



     <symbol viewBox="0 0 24 24" fill="none" id="doc">
        <path d="M13 2H6C5.46957 2 4.96086 2.21071 4.58579 2.58579C4.21071 2.96086 4 3.46957 4 4V20C4 20.5304 4.21071 21.0391 4.58579 21.4142C4.96086 21.7893 5.46957 22 6 22H18C18.5304 22 19.0391 21.7893 19.4142 21.4142C19.7893 21.0391 20 20.5304 20 20V9M13 2L20 9M13 2V9H20" stroke="currentColor" stroke-width="2" stroke-linecap="round" stroke-linejoin="round"/>
    </symbol>

    <symbol viewBox="0 0 24 24" fill="none" id="edit">
        <path d="M17 3.00006C17.2626 2.73741 17.5744 2.52907 17.9176 2.38693C18.2608 2.24479 18.6286 2.17163 19 2.17163C19.3714 2.17163 19.7392 2.24479 20.0824 2.38693C20.4256 2.52907 20.7374 2.73741 21 3.00006C21.2626 3.2627 21.471 3.57451 21.6131 3.91767C21.7553 4.26083 21.8284 4.62862 21.8284 5.00006C21.8284 5.37149 21.7553 5.73929 21.6131 6.08245C21.471 6.42561 21.2626 6.73741 21 7.00006L7.5 20.5001L2 22.0001L3.5 16.5001L17 3.00006Z" stroke="currentColor" stroke-width="2" stroke-linecap="round" stroke-linejoin="round"/>
    </symbol>

   <!-- <symbol viewBox="0 0 24 25" stroke="none" id="telegram">
        <circle cx="12" cy="12.8486" r="10.5" fill="currentColor"/>
        <path d="M17.2399 8.50522C17.3334 7.90112 16.7591 7.4243 16.2219 7.66013L5.52361 12.3573C5.13842 12.5264 5.1666 13.1098 5.5661 13.2371L7.77236 13.9396C8.19344 14.0737 8.64939 14.0044 9.01709 13.7504L13.9912 10.3138C14.1412 10.2102 14.3047 10.4235 14.1766 10.5556L10.5961 14.2471C10.2488 14.6052 10.3177 15.212 10.7355 15.474L14.7442 17.9879C15.1938 18.2698 15.7723 17.9866 15.8564 17.4432L17.2399 8.50522Z" fill="white"/>
    </symbol> -->

    <!-- <symbol viewBox="0 0 24 25" stroke="none" id="vk">
        <rect x="1.5" y="2.34863" width="21" height="21" rx="6" fill="currentColor"/>
        <path d="M17.1925 14.5992C17.0309 14.38 16.9947 14.1581 17.083 13.9332C17.3033 13.3333 20.512 9.52323 19.1753 9.52323C18.2568 9.53543 17.1522 9.52323 16.2716 9.52323C16.1081 9.56302 16.0023 9.64881 15.9361 9.82336C15.4212 11.0107 14.7911 12.4597 13.8676 13.391C13.7461 13.4889 13.6703 13.4848 13.5319 13.4485C12.8841 12.7665 13.5748 10.4299 13.1809 9.50667C13.1032 9.32595 12.9333 9.24432 12.7594 9.19835C11.8799 8.98875 9.87126 9.11351 9.54353 9.53543C9.44984 9.65605 9.43677 9.72187 9.50441 9.7327C9.81667 9.78196 10.0377 9.89981 10.1678 10.0861C10.4133 10.6267 10.5942 13.5059 9.87126 13.5059C9.14836 13.5059 7.98265 10.6802 7.66241 9.8969C7.57719 9.66104 7.36024 9.52582 7.13165 9.48591L4.99297 9.50227C4.61704 9.50227 4.40694 9.68771 4.54019 10.0613C5.6541 12.8264 8.09173 18.1859 11.8304 18.0517C12.205 18.0517 12.8493 18.1955 13.1418 17.8708C13.5438 17.3375 13.0535 16.3878 13.7428 16.0256C13.9166 15.933 14.0968 16.0106 14.2462 16.1243C15.0129 16.7081 15.4199 17.7328 16.3654 18.0439C16.5317 18.0986 16.6773 18.1123 16.8024 18.0849L18.8005 18.0521C19.1715 18.0521 19.5369 17.8871 19.4602 17.4436C19.1689 16.4925 18.0081 15.5149 17.1925 14.5992Z" fill="white"/>
    </symbol> -->

    <symbol viewBox="0 0 34 10" fill="none" stroke="currentColor" id="arrowDown">
        <path d="M33 1L17 9L0.999999 1" stroke="black" stroke-opacity="0.35" stroke-width="2" stroke-linecap="round" stroke-linejoin="round"/>
    </symbol>

    <symbol fill="none" stroke="currentColor" viewBox="0 0 16 16" id="error">   
        <path d="M8.00016 5.33325V7.99992M8.00016 10.6666H8.00683M14.6668 7.99992C14.6668 11.6818 11.6821 14.6666 8.00016 14.6666C4.31826 14.6666 1.3335 11.6818 1.3335 7.99992C1.3335 4.31802 4.31826 1.33325 8.00016 1.33325C11.6821 1.33325 14.6668 4.31802 14.6668 7.99992Z" stroke-width="1.33333" stroke-linecap="round" stroke-linejoin="round"/>
    </symbol>

    <symbol fill="none" stroke="currentColor" viewBox="0 0 16 16" id="success">
        <path d="M14.6668 7.38674V8.00007C14.666 9.43769 14.2005 10.8365 13.3397 11.988C12.4789 13.1394 11.269 13.9817 9.8904 14.3893C8.51178 14.797 7.03834 14.748 5.68981 14.2498C4.34128 13.7516 3.18993 12.8308 2.40747 11.6248C1.62501 10.4188 1.25336 8.99212 1.34795 7.55762C1.44254 6.12312 1.9983 4.75762 2.93235 3.66479C3.8664 2.57195 5.12869 1.81033 6.53096 1.4935C7.93323 1.17668 9.40034 1.32163 10.7135 1.90674M14.6668 2.66674L8.00017 9.34007L6.00017 7.34007" stroke-width="1.33" stroke-linecap="round" stroke-linejoin="round"/>
    </symbol>

    <symbol viewBox="0 0 52 66" fill="currentColor" stroke="none" id="arrow">
        <g clip-path="url(#clip0_4449_171276)">
        <path d="M33.2936 51.9983C27.3904 44.0042 21.4208 35.9946 15.5176 28.0005C15.6462 27.7516 15.8621 27.4302 15.9907 27.1813C18.8812 28.6053 21.8381 30.0448 24.7493 31.3806C26.4603 32.1551 28.192 32.8414 30.0067 33.175C33.7689 33.8735 35.9062 30.7473 34.9745 26.0621C34.6417 24.4952 34.1968 22.8089 33.5154 21.5321C30.1333 15.3404 26.6433 9.30938 23.2404 3.20582C22.9911 2.77504 22.6754 2.32863 22.2975 2.14673C21.986 1.98046 21.3673 1.92803 21.085 2.23384C20.6949 2.70037 20.2675 3.62337 20.4504 4.03854C20.891 5.44475 21.4395 6.69026 22.0545 7.95137C24.6681 12.9389 27.4145 17.9577 30.0073 23.0334C30.7801 24.5177 31.25 26.396 32.127 28.9283C30.3331 28.5065 29.2286 28.4329 28.2069 28.0066C23.7383 25.8395 19.3112 23.4959 14.8426 21.3288C13.8417 20.8143 12.8616 20.2117 11.7363 20.2262C10.7647 20.1839 9.4236 20.5199 8.66404 21.3648C7.53505 22.588 7.82632 24.3313 8.48701 25.6962C9.102 26.9573 9.71698 28.2184 10.5063 29.3344C15.2173 35.8386 19.8825 42.239 24.5935 48.7431C25.3371 49.7553 26.06 50.8557 27.2772 52.5376C23.27 51.6885 20.9849 47.9877 16.5173 48.7982C17.2695 50.3707 17.6394 51.4812 18.2459 52.182C23.2014 57.348 28.8457 61.3733 34.8095 64.6364C37.2806 66.0548 39.2813 64.1061 39.2468 60.3762C39.2213 58.6954 39.0629 56.9834 38.5765 55.4734C37.3211 51.2704 35.9784 47.1399 34.5694 42.9939C34.3158 42.2829 33.51 41.5352 33.0035 41.6022C31.8824 41.8969 31.7044 43.2507 31.9207 44.4181C32.3784 46.9448 32.9689 49.5028 33.5137 51.957C33.5551 51.7806 33.3808 51.9257 33.2936 51.9983Z" />
        </g>
        <defs>
        <clipPath id="clip0_4449_171276">
        <rect width="39.3204" height="58.1614" fill="white" transform="matrix(-0.973455 -0.228877 -0.228877 0.973455 51.5884 9)"/>
        </clipPath>
        </defs>
    </symbol>
</svg>